<svg width="62" height="11" viewBox="0 0 62 11" fill="none" xmlns="http://www.w3.org/2000/svg">
<mask id="path-1-outside-1_998_221" maskUnits="userSpaceOnUse" x="-0.845703" y="-1.17139" width="64" height="14" fill="black">
<rect fill="white" x="-0.845703" y="-1.17139" width="64" height="14"/>
<path d="M2.84191 10.8286H0.193913V1.45261H5.47391V3.49261L2.84191 3.33261V5.50861H5.00191V7.49261L2.84191 7.33261V10.8286ZM9.4276 10.0366C9.66227 10.0366 9.84093 9.94061 9.9636 9.74861C10.0916 9.55128 10.1556 9.28195 10.1556 8.94061V6.41261C10.1556 5.37261 9.91027 4.85261 9.4196 4.85261C9.19027 4.85261 9.0116 4.94595 8.8836 5.13261C8.7556 5.31928 8.6916 5.58328 8.6916 5.92461V8.52461C8.6916 9.53261 8.93693 10.0366 9.4276 10.0366ZM9.3636 10.9966C8.14227 10.9966 7.24893 10.7193 6.6836 10.1646C6.11827 9.60995 5.8356 8.72461 5.8356 7.50861C5.8356 6.30328 6.12093 5.39661 6.6916 4.78861C7.26227 4.17528 8.19027 3.86861 9.4756 3.86861C10.7289 3.86861 11.6329 4.16195 12.1876 4.74861C12.7476 5.32995 13.0276 6.21261 13.0276 7.39661C13.0276 8.62328 12.7316 9.52995 12.1396 10.1166C11.5529 10.7033 10.6276 10.9966 9.3636 10.9966ZM17.1151 10.0366C17.3498 10.0366 17.5284 9.94061 17.6511 9.74861C17.7791 9.55128 17.8431 9.28195 17.8431 8.94061V6.41261C17.8431 5.37261 17.5978 4.85261 17.1071 4.85261C16.8778 4.85261 16.6991 4.94595 16.5711 5.13261C16.4431 5.31928 16.3791 5.58328 16.3791 5.92461V8.52461C16.3791 9.53261 16.6244 10.0366 17.1151 10.0366ZM17.0511 10.9966C15.8298 10.9966 14.9364 10.7193 14.3711 10.1646C13.8058 9.60995 13.5231 8.72461 13.5231 7.50861C13.5231 6.30328 13.8084 5.39661 14.3791 4.78861C14.9498 4.17528 15.8778 3.86861 17.1631 3.86861C18.4164 3.86861 19.3204 4.16195 19.8751 4.74861C20.4351 5.32995 20.7151 6.21261 20.7151 7.39661C20.7151 8.62328 20.4191 9.52995 19.8271 10.1166C19.2404 10.7033 18.3151 10.9966 17.0511 10.9966ZM26.0586 10.8286L25.7466 9.79661C25.7039 9.87128 25.6533 9.94595 25.5946 10.0206C25.5413 10.0953 25.4533 10.1913 25.3306 10.3086C25.2079 10.4206 25.0773 10.5193 24.9386 10.6046C24.7999 10.6899 24.6266 10.7646 24.4186 10.8286C24.2106 10.8926 23.9919 10.9246 23.7626 10.9246C22.8826 10.9246 22.2373 10.6233 21.8266 10.0206C21.4159 9.41795 21.2106 8.58061 21.2106 7.50861C21.2106 6.83661 21.3066 6.23928 21.4986 5.71661C21.6906 5.18861 21.9919 4.76461 22.4026 4.44461C22.8133 4.12461 23.3093 3.96461 23.8906 3.96461C24.2373 3.96461 24.5466 4.00195 24.8186 4.07661C25.0906 4.15128 25.3253 4.24195 25.5226 4.34861V1.92461L24.6426 1.62861V0.748614L27.4746 0.348613H28.0986V10.8286H26.0586ZM24.9306 9.35661C25.0266 9.35661 25.1253 9.34061 25.2266 9.30861C25.3279 9.27128 25.4266 9.22061 25.5226 9.15661V5.13261C25.3573 5.09528 25.2053 5.07661 25.0666 5.07661C24.3573 5.08195 23.9999 5.62861 23.9946 6.71661V7.83661C23.9946 8.33795 24.0826 8.71661 24.2586 8.97261C24.4346 9.22861 24.6586 9.35661 24.9306 9.35661ZM32.3033 10.8286V1.45261H34.9513V8.68461H37.3353V10.8286H32.3033ZM41.6129 10.1166L41.5329 10.2046C41.4796 10.2686 41.3969 10.3433 41.2849 10.4286C41.1782 10.5139 41.0529 10.5993 40.9089 10.6846C40.7702 10.7699 40.5996 10.8419 40.3969 10.9006C40.1942 10.9646 39.9862 10.9966 39.7729 10.9966C38.3329 10.9966 37.6129 10.2846 37.6129 8.86061C37.6129 8.58328 37.6636 8.32995 37.7649 8.10061C37.8662 7.86595 37.9969 7.66861 38.1569 7.50861C38.3169 7.34861 38.5089 7.20728 38.7329 7.08461C38.9569 6.95661 39.1809 6.85795 39.4049 6.78861C39.6342 6.71395 39.8742 6.65261 40.1249 6.60461C40.3756 6.55661 40.5996 6.52461 40.7969 6.50861C40.9942 6.49261 41.1836 6.48461 41.3649 6.48461V6.34061C41.3649 6.01528 41.2769 5.78595 41.1009 5.65261C40.9302 5.51928 40.6529 5.45261 40.2689 5.45261C39.9382 5.45261 39.5942 5.49261 39.2369 5.57261C38.8796 5.64728 38.5996 5.73795 38.3969 5.84461L37.8849 4.75661C38.2476 4.52195 38.7196 4.31661 39.3009 4.14061C39.8822 3.95928 40.4742 3.86861 41.0769 3.86861C41.6102 3.86861 42.0502 3.92195 42.3969 4.02861C42.7436 4.12995 43.0236 4.30595 43.2369 4.55661C43.4556 4.80195 43.6102 5.11661 43.7009 5.50061C43.7916 5.87928 43.8369 6.36195 43.8369 6.94861V10.2046L44.0609 10.8286H41.8689L41.6129 10.1166ZM40.9809 9.58861C41.0502 9.58861 41.1142 9.57528 41.1729 9.54861C41.2369 9.51661 41.2849 9.48728 41.3169 9.46061C41.3489 9.42861 41.3649 9.41261 41.3649 9.41261V7.49261C41.0396 7.49261 40.7809 7.58328 40.5889 7.76461C40.3969 7.94061 40.3009 8.21528 40.3009 8.58861C40.3009 9.25528 40.5276 9.58861 40.9809 9.58861ZM48.956 10.8286C48.3587 10.8286 47.8254 10.7033 47.356 10.4526V10.8286H44.748V1.78061L44.268 1.49261V0.748614L46.836 0.348613H47.356V4.65261C47.4414 4.55661 47.5347 4.46595 47.636 4.38061C47.7374 4.29528 47.86 4.21261 48.004 4.13261C48.148 4.05261 48.3107 3.98861 48.492 3.94061C48.6787 3.89261 48.876 3.86861 49.084 3.86861C49.964 3.86861 50.6094 4.16995 51.02 4.77261C51.436 5.37528 51.644 6.20995 51.644 7.27661C51.644 7.77795 51.588 8.24195 51.476 8.66861C51.364 9.08995 51.1987 9.46328 50.98 9.78861C50.7614 10.1139 50.4787 10.3699 50.132 10.5566C49.7907 10.7379 49.3987 10.8286 48.956 10.8286ZM47.78 9.71661C48.4947 9.71661 48.852 9.16995 48.852 8.07661V6.71661C48.852 6.25795 48.7667 5.90595 48.596 5.66061C48.4307 5.40995 48.2174 5.28461 47.956 5.28461C47.7587 5.28461 47.5587 5.35661 47.356 5.50061V9.66061C47.436 9.68195 47.5107 9.69795 47.58 9.70861C47.6494 9.71395 47.716 9.71661 47.78 9.71661ZM56.0692 6.69261C56.0692 6.01528 56.0346 5.53528 55.9652 5.25261C55.8959 4.96995 55.7679 4.82861 55.5812 4.82861C55.4212 4.82861 55.2906 4.85795 55.1892 4.91661C55.0879 4.96995 55.0132 5.05795 54.9652 5.18061C54.9172 5.29795 54.8852 5.42061 54.8692 5.54861C54.8586 5.67128 54.8532 5.82861 54.8532 6.02061V6.69261H56.0692ZM55.4292 10.9966C54.8319 10.9966 54.3119 10.9059 53.8692 10.7246C53.4319 10.5433 53.0852 10.2899 52.8292 9.96461C52.5786 9.63928 52.3946 9.27395 52.2772 8.86861C52.1599 8.45795 52.1012 8.00195 52.1012 7.50061C52.1012 6.30595 52.4052 5.40195 53.0132 4.78861C53.6212 4.17528 54.4719 3.86861 55.5652 3.86861C56.6159 3.86861 57.3679 4.11661 57.8212 4.61261C58.2746 5.10328 58.5012 5.89528 58.5012 6.98861V7.87661H54.8452V8.02861C54.8452 8.34328 54.8772 8.60195 54.9412 8.80461C55.0106 9.00728 55.1092 9.15661 55.2372 9.25261C55.3652 9.34861 55.4959 9.41261 55.6292 9.44461C55.7626 9.47661 55.9252 9.49261 56.1172 9.49261C56.3039 9.49261 56.5039 9.46861 56.7172 9.42061C56.9359 9.37261 57.1546 9.29795 57.3732 9.19661C57.5972 9.09528 57.7839 8.97528 57.9332 8.83661L58.4052 9.64461C58.2079 9.96461 57.9172 10.2339 57.5332 10.4526C57.1546 10.6659 56.7892 10.8099 56.4372 10.8846C56.0852 10.9593 55.7492 10.9966 55.4292 10.9966ZM59.2799 10.8286V1.78061L58.7999 1.49261V0.748614L61.3679 0.348613H61.8879V10.8286H59.2799Z"/>
</mask>
<path d="M2.84191 10.8286H0.193913V1.45261H5.47391V3.49261L2.84191 3.33261V5.50861H5.00191V7.49261L2.84191 7.33261V10.8286ZM9.4276 10.0366C9.66227 10.0366 9.84093 9.94061 9.9636 9.74861C10.0916 9.55128 10.1556 9.28195 10.1556 8.94061V6.41261C10.1556 5.37261 9.91027 4.85261 9.4196 4.85261C9.19027 4.85261 9.0116 4.94595 8.8836 5.13261C8.7556 5.31928 8.6916 5.58328 8.6916 5.92461V8.52461C8.6916 9.53261 8.93693 10.0366 9.4276 10.0366ZM9.3636 10.9966C8.14227 10.9966 7.24893 10.7193 6.6836 10.1646C6.11827 9.60995 5.8356 8.72461 5.8356 7.50861C5.8356 6.30328 6.12093 5.39661 6.6916 4.78861C7.26227 4.17528 8.19027 3.86861 9.4756 3.86861C10.7289 3.86861 11.6329 4.16195 12.1876 4.74861C12.7476 5.32995 13.0276 6.21261 13.0276 7.39661C13.0276 8.62328 12.7316 9.52995 12.1396 10.1166C11.5529 10.7033 10.6276 10.9966 9.3636 10.9966ZM17.1151 10.0366C17.3498 10.0366 17.5284 9.94061 17.6511 9.74861C17.7791 9.55128 17.8431 9.28195 17.8431 8.94061V6.41261C17.8431 5.37261 17.5978 4.85261 17.1071 4.85261C16.8778 4.85261 16.6991 4.94595 16.5711 5.13261C16.4431 5.31928 16.3791 5.58328 16.3791 5.92461V8.52461C16.3791 9.53261 16.6244 10.0366 17.1151 10.0366ZM17.0511 10.9966C15.8298 10.9966 14.9364 10.7193 14.3711 10.1646C13.8058 9.60995 13.5231 8.72461 13.5231 7.50861C13.5231 6.30328 13.8084 5.39661 14.3791 4.78861C14.9498 4.17528 15.8778 3.86861 17.1631 3.86861C18.4164 3.86861 19.3204 4.16195 19.8751 4.74861C20.4351 5.32995 20.7151 6.21261 20.7151 7.39661C20.7151 8.62328 20.4191 9.52995 19.8271 10.1166C19.2404 10.7033 18.3151 10.9966 17.0511 10.9966ZM26.0586 10.8286L25.7466 9.79661C25.7039 9.87128 25.6533 9.94595 25.5946 10.0206C25.5413 10.0953 25.4533 10.1913 25.3306 10.3086C25.2079 10.4206 25.0773 10.5193 24.9386 10.6046C24.7999 10.6899 24.6266 10.7646 24.4186 10.8286C24.2106 10.8926 23.9919 10.9246 23.7626 10.9246C22.8826 10.9246 22.2373 10.6233 21.8266 10.0206C21.4159 9.41795 21.2106 8.58061 21.2106 7.50861C21.2106 6.83661 21.3066 6.23928 21.4986 5.71661C21.6906 5.18861 21.9919 4.76461 22.4026 4.44461C22.8133 4.12461 23.3093 3.96461 23.8906 3.96461C24.2373 3.96461 24.5466 4.00195 24.8186 4.07661C25.0906 4.15128 25.3253 4.24195 25.5226 4.34861V1.92461L24.6426 1.62861V0.748614L27.4746 0.348613H28.0986V10.8286H26.0586ZM24.9306 9.35661C25.0266 9.35661 25.1253 9.34061 25.2266 9.30861C25.3279 9.27128 25.4266 9.22061 25.5226 9.15661V5.13261C25.3573 5.09528 25.2053 5.07661 25.0666 5.07661C24.3573 5.08195 23.9999 5.62861 23.9946 6.71661V7.83661C23.9946 8.33795 24.0826 8.71661 24.2586 8.97261C24.4346 9.22861 24.6586 9.35661 24.9306 9.35661ZM32.3033 10.8286V1.45261H34.9513V8.68461H37.3353V10.8286H32.3033ZM41.6129 10.1166L41.5329 10.2046C41.4796 10.2686 41.3969 10.3433 41.2849 10.4286C41.1782 10.5139 41.0529 10.5993 40.9089 10.6846C40.7702 10.7699 40.5996 10.8419 40.3969 10.9006C40.1942 10.9646 39.9862 10.9966 39.7729 10.9966C38.3329 10.9966 37.6129 10.2846 37.6129 8.86061C37.6129 8.58328 37.6636 8.32995 37.7649 8.10061C37.8662 7.86595 37.9969 7.66861 38.1569 7.50861C38.3169 7.34861 38.5089 7.20728 38.7329 7.08461C38.9569 6.95661 39.1809 6.85795 39.4049 6.78861C39.6342 6.71395 39.8742 6.65261 40.1249 6.60461C40.3756 6.55661 40.5996 6.52461 40.7969 6.50861C40.9942 6.49261 41.1836 6.48461 41.3649 6.48461V6.34061C41.3649 6.01528 41.2769 5.78595 41.1009 5.65261C40.9302 5.51928 40.6529 5.45261 40.2689 5.45261C39.9382 5.45261 39.5942 5.49261 39.2369 5.57261C38.8796 5.64728 38.5996 5.73795 38.3969 5.84461L37.8849 4.75661C38.2476 4.52195 38.7196 4.31661 39.3009 4.14061C39.8822 3.95928 40.4742 3.86861 41.0769 3.86861C41.6102 3.86861 42.0502 3.92195 42.3969 4.02861C42.7436 4.12995 43.0236 4.30595 43.2369 4.55661C43.4556 4.80195 43.6102 5.11661 43.7009 5.50061C43.7916 5.87928 43.8369 6.36195 43.8369 6.94861V10.2046L44.0609 10.8286H41.8689L41.6129 10.1166ZM40.9809 9.58861C41.0502 9.58861 41.1142 9.57528 41.1729 9.54861C41.2369 9.51661 41.2849 9.48728 41.3169 9.46061C41.3489 9.42861 41.3649 9.41261 41.3649 9.41261V7.49261C41.0396 7.49261 40.7809 7.58328 40.5889 7.76461C40.3969 7.94061 40.3009 8.21528 40.3009 8.58861C40.3009 9.25528 40.5276 9.58861 40.9809 9.58861ZM48.956 10.8286C48.3587 10.8286 47.8254 10.7033 47.356 10.4526V10.8286H44.748V1.78061L44.268 1.49261V0.748614L46.836 0.348613H47.356V4.65261C47.4414 4.55661 47.5347 4.46595 47.636 4.38061C47.7374 4.29528 47.86 4.21261 48.004 4.13261C48.148 4.05261 48.3107 3.98861 48.492 3.94061C48.6787 3.89261 48.876 3.86861 49.084 3.86861C49.964 3.86861 50.6094 4.16995 51.02 4.77261C51.436 5.37528 51.644 6.20995 51.644 7.27661C51.644 7.77795 51.588 8.24195 51.476 8.66861C51.364 9.08995 51.1987 9.46328 50.98 9.78861C50.7614 10.1139 50.4787 10.3699 50.132 10.5566C49.7907 10.7379 49.3987 10.8286 48.956 10.8286ZM47.78 9.71661C48.4947 9.71661 48.852 9.16995 48.852 8.07661V6.71661C48.852 6.25795 48.7667 5.90595 48.596 5.66061C48.4307 5.40995 48.2174 5.28461 47.956 5.28461C47.7587 5.28461 47.5587 5.35661 47.356 5.50061V9.66061C47.436 9.68195 47.5107 9.69795 47.58 9.70861C47.6494 9.71395 47.716 9.71661 47.78 9.71661ZM56.0692 6.69261C56.0692 6.01528 56.0346 5.53528 55.9652 5.25261C55.8959 4.96995 55.7679 4.82861 55.5812 4.82861C55.4212 4.82861 55.2906 4.85795 55.1892 4.91661C55.0879 4.96995 55.0132 5.05795 54.9652 5.18061C54.9172 5.29795 54.8852 5.42061 54.8692 5.54861C54.8586 5.67128 54.8532 5.82861 54.8532 6.02061V6.69261H56.0692ZM55.4292 10.9966C54.8319 10.9966 54.3119 10.9059 53.8692 10.7246C53.4319 10.5433 53.0852 10.2899 52.8292 9.96461C52.5786 9.63928 52.3946 9.27395 52.2772 8.86861C52.1599 8.45795 52.1012 8.00195 52.1012 7.50061C52.1012 6.30595 52.4052 5.40195 53.0132 4.78861C53.6212 4.17528 54.4719 3.86861 55.5652 3.86861C56.6159 3.86861 57.3679 4.11661 57.8212 4.61261C58.2746 5.10328 58.5012 5.89528 58.5012 6.98861V7.87661H54.8452V8.02861C54.8452 8.34328 54.8772 8.60195 54.9412 8.80461C55.0106 9.00728 55.1092 9.15661 55.2372 9.25261C55.3652 9.34861 55.4959 9.41261 55.6292 9.44461C55.7626 9.47661 55.9252 9.49261 56.1172 9.49261C56.3039 9.49261 56.5039 9.46861 56.7172 9.42061C56.9359 9.37261 57.1546 9.29795 57.3732 9.19661C57.5972 9.09528 57.7839 8.97528 57.9332 8.83661L58.4052 9.64461C58.2079 9.96461 57.9172 10.2339 57.5332 10.4526C57.1546 10.6659 56.7892 10.8099 56.4372 10.8846C56.0852 10.9593 55.7492 10.9966 55.4292 10.9966ZM59.2799 10.8286V1.78061L58.7999 1.49261V0.748614L61.3679 0.348613H61.8879V10.8286H59.2799Z" fill="white"/>
<path d="M2.84191 10.8286V11.8286H3.84191V10.8286H2.84191ZM0.193913 10.8286H-0.806087V11.8286H0.193913V10.8286ZM0.193913 1.45261V0.452613H-0.806087V1.45261H0.193913ZM5.47391 1.45261H6.47391V0.452613H5.47391V1.45261ZM5.47391 3.49261L5.41324 4.49077L6.47391 4.55525V3.49261H5.47391ZM2.84191 3.33261L2.90259 2.33446L1.84191 2.26998V3.33261H2.84191ZM2.84191 5.50861H1.84191V6.50861H2.84191V5.50861ZM5.00191 5.50861H6.00191V4.50861H5.00191V5.50861ZM5.00191 7.49261L4.92804 8.48988L6.00191 8.56943V7.49261H5.00191ZM2.84191 7.33261L2.91578 6.33535L1.84191 6.2558V7.33261H2.84191ZM2.84191 9.82861H0.193913V11.8286H2.84191V9.82861ZM1.19391 10.8286V1.45261H-0.806087V10.8286H1.19391ZM0.193913 2.45261H5.47391V0.452613H0.193913V2.45261ZM4.47391 1.45261V3.49261H6.47391V1.45261H4.47391ZM5.53459 2.49446L2.90259 2.33446L2.78123 4.33077L5.41324 4.49077L5.53459 2.49446ZM1.84191 3.33261V5.50861H3.84191V3.33261H1.84191ZM2.84191 6.50861H5.00191V4.50861H2.84191V6.50861ZM4.00191 5.50861V7.49261H6.00191V5.50861H4.00191ZM5.07578 6.49535L2.91578 6.33535L2.76804 8.32988L4.92804 8.48988L5.07578 6.49535ZM1.84191 7.33261V10.8286H3.84191V7.33261H1.84191ZM9.9636 9.74861L9.12462 9.20441L9.1209 9.21022L9.9636 9.74861ZM6.6836 10.1646L5.98326 10.8784L5.98326 10.8784L6.6836 10.1646ZM6.6916 4.78861L7.42075 5.47299L7.42371 5.4698L6.6916 4.78861ZM12.1876 4.74861L11.4609 5.43565L11.4674 5.44238L12.1876 4.74861ZM12.1396 10.1166L11.4357 9.40631L11.4325 9.40951L12.1396 10.1166ZM9.4276 11.0366C9.99115 11.0366 10.4933 10.7769 10.8063 10.287L9.1209 9.21022C9.13992 9.18047 9.18547 9.12607 9.26429 9.08372C9.34184 9.04205 9.40584 9.03661 9.4276 9.03661V11.0366ZM10.8026 10.2928C11.073 9.87582 11.1556 9.39251 11.1556 8.94061H9.1556C9.1556 9.17139 9.11016 9.22674 9.12464 9.20442L10.8026 10.2928ZM11.1556 8.94061V6.41261H9.1556V8.94061H11.1556ZM11.1556 6.41261C11.1556 5.8457 11.0938 5.27748 10.876 4.81592C10.7609 4.57205 10.5853 4.32183 10.3186 4.13339C10.0427 3.93846 9.7296 3.85261 9.4196 3.85261V5.85261C9.35493 5.85261 9.25648 5.83177 9.16457 5.76684C9.08186 5.7084 9.05959 5.65317 9.0672 5.6693C9.07601 5.68798 9.10076 5.75206 9.12174 5.88547C9.14226 6.01591 9.1556 6.18935 9.1556 6.41261H11.1556ZM9.4196 3.85261C8.86578 3.85261 8.37628 4.10419 8.05887 4.56709L9.70833 5.69814C9.69134 5.72292 9.64933 5.77098 9.57662 5.80896C9.50441 5.84668 9.44378 5.85261 9.4196 5.85261V3.85261ZM8.05887 4.56709C7.77224 4.98508 7.6916 5.47772 7.6916 5.92461H9.6916C9.6916 5.81404 9.7022 5.74436 9.71145 5.70621C9.72042 5.6692 9.72522 5.67351 9.70833 5.69814L8.05887 4.56709ZM7.6916 5.92461V8.52461H9.6916V5.92461H7.6916ZM7.6916 8.52461C7.6916 9.07771 7.75374 9.63872 7.97647 10.0963C8.0945 10.3388 8.27321 10.5841 8.5406 10.7672C8.81557 10.9555 9.12436 11.0366 9.4276 11.0366V9.03661C9.48551 9.03661 9.57963 9.05473 9.67061 9.11703C9.75399 9.17412 9.77937 9.23046 9.77473 9.22094C9.76849 9.20811 9.74503 9.15129 9.72469 9.02595C9.70481 8.90344 9.6916 8.73868 9.6916 8.52461H7.6916ZM9.3636 9.99661C8.26583 9.99661 7.68256 9.74379 7.38394 9.4508L5.98326 10.8784C6.81531 11.6948 8.0187 11.9966 9.3636 11.9966V9.99661ZM7.38394 9.4508C7.09182 9.16419 6.8356 8.59723 6.8356 7.50861H4.8356C4.8356 8.85199 5.14472 10.0557 5.98326 10.8784L7.38394 9.4508ZM6.8356 7.50861C6.8356 6.44504 7.08823 5.82724 7.42074 5.47298L5.96246 4.10425C5.15364 4.96599 4.8356 6.16152 4.8356 7.50861H6.8356ZM7.42371 5.4698C7.72416 5.14688 8.32106 4.86861 9.4756 4.86861V2.86861C8.05948 2.86861 6.80037 3.20368 5.95949 4.10743L7.42371 5.4698ZM9.4756 4.86861C10.6033 4.86861 11.1778 5.13609 11.461 5.43562L12.9142 4.0616C12.0881 3.18781 10.8546 2.86861 9.4756 2.86861V4.86861ZM11.4674 5.44238C11.7792 5.76602 12.0276 6.35161 12.0276 7.39661H14.0276C14.0276 6.07361 13.716 4.89388 12.9078 4.05484L11.4674 5.44238ZM12.0276 7.39661C12.0276 8.48199 11.7646 9.0804 11.4357 9.40631L12.8435 10.8269C13.6986 9.97949 14.0276 8.76457 14.0276 7.39661H12.0276ZM11.4325 9.40951C11.1117 9.73032 10.4987 9.99661 9.3636 9.99661V11.9966C10.7565 11.9966 11.9942 11.6762 12.8467 10.8237L11.4325 9.40951ZM17.6511 9.74861L16.8121 9.20441L16.8084 9.21022L17.6511 9.74861ZM14.3711 10.1646L13.6708 10.8784L13.6708 10.8784L14.3711 10.1646ZM14.3791 4.78861L15.1082 5.47299L15.1112 5.4698L14.3791 4.78861ZM19.8751 4.74861L19.1484 5.43565L19.1549 5.44238L19.8751 4.74861ZM19.8271 10.1166L19.1232 9.40631L19.12 9.40951L19.8271 10.1166ZM17.1151 11.0366C17.6786 11.0366 18.1808 10.7769 18.4938 10.287L16.8084 9.21022C16.8274 9.18047 16.873 9.12607 16.9518 9.08372C17.0293 9.04205 17.0933 9.03661 17.1151 9.03661V11.0366ZM18.4901 10.2928C18.7605 9.87582 18.8431 9.39251 18.8431 8.94061H16.8431C16.8431 9.17139 16.7977 9.22674 16.8121 9.20442L18.4901 10.2928ZM18.8431 8.94061V6.41261H16.8431V8.94061H18.8431ZM18.8431 6.41261C18.8431 5.8457 18.7813 5.27748 18.5635 4.81592C18.4484 4.57205 18.2728 4.32183 18.0061 4.13339C17.7302 3.93846 17.4171 3.85261 17.1071 3.85261V5.85261C17.0424 5.85261 16.944 5.83177 16.8521 5.76684C16.7694 5.7084 16.7471 5.65317 16.7547 5.6693C16.7635 5.68798 16.7883 5.75206 16.8092 5.88547C16.8298 6.01591 16.8431 6.18935 16.8431 6.41261H18.8431ZM17.1071 3.85261C16.5533 3.85261 16.0638 4.10419 15.7464 4.56709L17.3958 5.69814C17.3788 5.72292 17.3368 5.77098 17.2641 5.80896C17.1919 5.84668 17.1313 5.85261 17.1071 5.85261V3.85261ZM15.7464 4.56709C15.4597 4.98508 15.3791 5.47772 15.3791 5.92461H17.3791C17.3791 5.81404 17.3897 5.74436 17.399 5.70621C17.4079 5.6692 17.4127 5.67351 17.3958 5.69814L15.7464 4.56709ZM15.3791 5.92461V8.52461H17.3791V5.92461H15.3791ZM15.3791 8.52461C15.3791 9.07771 15.4412 9.63872 15.664 10.0963C15.782 10.3388 15.9607 10.5841 16.2281 10.7672C16.5031 10.9555 16.8119 11.0366 17.1151 11.0366V9.03661C17.173 9.03661 17.2671 9.05473 17.3581 9.11703C17.4415 9.17412 17.4669 9.23046 17.4622 9.22094C17.456 9.20811 17.4325 9.15129 17.4122 9.02595C17.3923 8.90344 17.3791 8.73868 17.3791 8.52461H15.3791ZM17.0511 9.99661C15.9533 9.99661 15.3701 9.74379 15.0714 9.4508L13.6708 10.8784C14.5028 11.6948 15.7062 11.9966 17.0511 11.9966V9.99661ZM15.0714 9.4508C14.7793 9.16419 14.5231 8.59723 14.5231 7.50861H12.5231C12.5231 8.85199 12.8322 10.0557 13.6708 10.8784L15.0714 9.4508ZM14.5231 7.50861C14.5231 6.44504 14.7757 5.82724 15.1082 5.47298L13.65 4.10425C12.8411 4.96599 12.5231 6.16152 12.5231 7.50861H14.5231ZM15.1112 5.4698C15.4117 5.14688 16.0086 4.86861 17.1631 4.86861V2.86861C15.747 2.86861 14.4879 3.20368 13.647 4.10743L15.1112 5.4698ZM17.1631 4.86861C18.2908 4.86861 18.8653 5.13609 19.1485 5.43562L20.6017 4.0616C19.7756 3.18781 18.5421 2.86861 17.1631 2.86861V4.86861ZM19.1549 5.44238C19.4667 5.76602 19.7151 6.35161 19.7151 7.39661H21.7151C21.7151 6.07361 21.4035 4.89388 20.5953 4.05484L19.1549 5.44238ZM19.7151 7.39661C19.7151 8.48199 19.4521 9.0804 19.1232 9.40631L20.531 10.8269C21.3861 9.97949 21.7151 8.76457 21.7151 7.39661H19.7151ZM19.12 9.40951C18.7992 9.73032 18.1862 9.99661 17.0511 9.99661V11.9966C18.444 11.9966 19.6817 11.6762 20.5342 10.8237L19.12 9.40951ZM26.0586 10.8286L25.1014 11.118L25.3162 11.8286H26.0586V10.8286ZM25.7466 9.79661L26.7038 9.50722L26.0313 7.2828L24.8784 9.30047L25.7466 9.79661ZM25.5946 10.0206L24.8083 9.40279L24.7942 9.42077L24.7809 9.43937L25.5946 10.0206ZM25.3306 10.3086L26.0049 11.0471L26.0134 11.0393L26.0218 11.0313L25.3306 10.3086ZM24.4186 10.8286L24.1245 9.87283L24.1245 9.87283L24.4186 10.8286ZM21.8266 10.0206L21.0002 10.5837L21.0002 10.5837L21.8266 10.0206ZM21.4986 5.71661L22.4373 6.06143L22.4384 6.05836L21.4986 5.71661ZM22.4026 4.44461L21.788 3.65581L21.788 3.65581L22.4026 4.44461ZM24.8186 4.07661L24.5539 5.04094L24.5539 5.04094L24.8186 4.07661ZM25.5226 4.34861L25.0471 5.22832L26.5226 6.0259V4.34861H25.5226ZM25.5226 1.92461H26.5226V1.20592L25.8414 0.976795L25.5226 1.92461ZM24.6426 1.62861H23.6426V2.3473L24.3238 2.57643L24.6426 1.62861ZM24.6426 0.748614L24.5027 -0.241558L23.6426 -0.120069V0.748614H24.6426ZM27.4746 0.348613V-0.651387H27.4043L27.3347 -0.641559L27.4746 0.348613ZM28.0986 0.348613H29.0986V-0.651387H28.0986V0.348613ZM28.0986 10.8286V11.8286H29.0986V10.8286H28.0986ZM25.2266 9.30861L25.5277 10.2622L25.5502 10.2551L25.5723 10.247L25.2266 9.30861ZM25.5226 9.15661L26.0773 9.98866L26.5226 9.6918V9.15661H25.5226ZM25.5226 5.13261H26.5226V4.33324L25.7429 4.15717L25.5226 5.13261ZM25.0666 5.07661L25.0666 4.07658L25.0591 4.07664L25.0666 5.07661ZM23.9946 6.71661L22.9946 6.71171V6.71661H23.9946ZM24.2586 8.97261L25.0826 8.40608L25.0826 8.40608L24.2586 8.97261ZM27.0158 10.5392L26.7038 9.50722L24.7894 10.086L25.1014 11.118L27.0158 10.5392ZM24.8784 9.30047C24.8623 9.32851 24.8398 9.3627 24.8083 9.40279L26.3809 10.6384C26.4668 10.5292 26.5455 10.4141 26.6148 10.2928L24.8784 9.30047ZM24.7809 9.43937C24.7853 9.43321 24.7784 9.4435 24.7514 9.47289C24.7259 9.50078 24.6893 9.53818 24.6394 9.58597L26.0218 11.0313C26.1585 10.9005 26.3001 10.7534 26.4083 10.6019L24.7809 9.43937ZM24.6563 9.57013C24.5791 9.64063 24.4986 9.7012 24.4145 9.75296L25.4627 11.4563C25.6559 11.3374 25.8367 11.2006 26.0049 11.0471L24.6563 9.57013ZM24.4145 9.75296C24.3673 9.78202 24.277 9.82592 24.1245 9.87283L24.7127 11.7844C24.9762 11.7033 25.2326 11.5979 25.4627 11.4563L24.4145 9.75296ZM24.1245 9.87283C24.0168 9.90598 23.8976 9.92461 23.7626 9.92461V11.9246C24.0862 11.9246 24.4044 11.8792 24.7127 11.7844L24.1245 9.87283ZM23.7626 9.92461C23.1353 9.92461 22.8374 9.72808 22.653 9.4575L21.0002 10.5837C21.6372 11.5185 22.6299 11.9246 23.7626 11.9246V9.92461ZM22.653 9.4575C22.3971 9.08195 22.2106 8.46921 22.2106 7.50861H20.2106C20.2106 8.69202 20.4348 9.75395 21.0002 10.5837L22.653 9.4575ZM22.2106 7.50861C22.2106 6.93063 22.2933 6.45346 22.4373 6.06143L20.5599 5.3718C20.3199 6.0251 20.2106 6.74259 20.2106 7.50861H22.2106ZM22.4384 6.05836C22.5715 5.69242 22.7666 5.42875 23.0173 5.23341L21.788 3.65581C21.2173 4.10048 20.8097 4.68481 20.5588 5.37487L22.4384 6.05836ZM23.0172 5.23341C23.2318 5.06624 23.5045 4.96461 23.8906 4.96461V2.96461C23.114 2.96461 22.3947 3.18299 21.788 3.65581L23.0172 5.23341ZM23.8906 4.96461C24.1674 4.96461 24.3852 4.99463 24.5539 5.04094L25.0833 3.11229C24.708 3.00927 24.3071 2.96461 23.8906 2.96461V4.96461ZM24.5539 5.04094C24.7705 5.10039 24.9311 5.16562 25.0471 5.22832L25.9981 3.46891C25.7194 3.31827 25.4107 3.20217 25.0833 3.11229L24.5539 5.04094ZM26.5226 4.34861V1.92461H24.5226V4.34861H26.5226ZM25.8414 0.976795L24.9614 0.680795L24.3238 2.57643L25.2038 2.87243L25.8414 0.976795ZM25.6426 1.62861V0.748614H23.6426V1.62861H25.6426ZM24.7825 1.73879L27.6145 1.33879L27.3347 -0.641559L24.5027 -0.241558L24.7825 1.73879ZM27.4746 1.34861H28.0986V-0.651387H27.4746V1.34861ZM27.0986 0.348613V10.8286H29.0986V0.348613H27.0986ZM28.0986 9.82861H26.0586V11.8286H28.0986V9.82861ZM24.9306 10.3566C25.139 10.3566 25.3393 10.3217 25.5277 10.2622L24.9255 8.35503C24.9181 8.35737 24.9152 8.35772 24.9165 8.35751C24.918 8.35728 24.9228 8.35661 24.9306 8.35661V10.3566ZM25.5723 10.247C25.7521 10.1807 25.9205 10.0932 26.0773 9.98866L24.9679 8.32456C24.9327 8.34801 24.9038 8.36183 24.8809 8.37027L25.5723 10.247ZM26.5226 9.15661V5.13261H24.5226V9.15661H26.5226ZM25.7429 4.15717C25.5206 4.10698 25.2936 4.07661 25.0666 4.07661V6.07661C25.1169 6.07661 25.194 6.08358 25.3023 6.10805L25.7429 4.15717ZM25.0591 4.07664C24.4037 4.08157 23.8094 4.36236 23.4296 4.94347C23.0965 5.45298 22.9977 6.09002 22.9946 6.71171L24.9946 6.72152C24.9957 6.50079 25.0147 6.33645 25.0409 6.21871C25.0671 6.10042 25.0959 6.04956 25.1036 6.03775C25.1072 6.03239 25.0932 6.05317 25.0602 6.07024C25.0305 6.08559 25.0258 6.07695 25.0741 6.07658L25.0591 4.07664ZM22.9946 6.71661V7.83661H24.9946V6.71661H22.9946ZM22.9946 7.83661C22.9946 8.42678 23.0932 9.04257 23.4346 9.53914L25.0826 8.40608C25.072 8.39066 24.9946 8.24911 24.9946 7.83661H22.9946ZM23.4346 9.53914C23.7664 10.0218 24.2785 10.3566 24.9306 10.3566V8.35661C24.9417 8.35661 24.961 8.35801 24.9855 8.36434C25.0103 8.37074 25.034 8.38054 25.0547 8.39237C25.0973 8.4167 25.1026 8.43509 25.0826 8.40608L23.4346 9.53914ZM32.3033 10.8286H31.3033V11.8286H32.3033V10.8286ZM32.3033 1.45261V0.452613H31.3033V1.45261H32.3033ZM34.9513 1.45261H35.9513V0.452613H34.9513V1.45261ZM34.9513 8.68461H33.9513V9.68461H34.9513V8.68461ZM37.3353 8.68461H38.3353V7.68461H37.3353V8.68461ZM37.3353 10.8286V11.8286H38.3353V10.8286H37.3353ZM33.3033 10.8286V1.45261H31.3033V10.8286H33.3033ZM32.3033 2.45261H34.9513V0.452613H32.3033V2.45261ZM33.9513 1.45261V8.68461H35.9513V1.45261H33.9513ZM34.9513 9.68461H37.3353V7.68461H34.9513V9.68461ZM36.3353 8.68461V10.8286H38.3353V8.68461H36.3353ZM37.3353 9.82861H32.3033V11.8286H37.3353V9.82861ZM41.6129 10.1166L42.5539 9.77827L41.9914 8.21368L40.873 9.44394L41.6129 10.1166ZM41.5329 10.2046L40.793 9.53194L40.7785 9.54788L40.7647 9.56443L41.5329 10.2046ZM41.2849 10.4286L40.6789 9.63318L40.6695 9.64035L40.6602 9.64774L41.2849 10.4286ZM40.9089 10.6846L40.3991 9.82432L40.3919 9.82858L40.3848 9.83296L40.9089 10.6846ZM40.3969 10.9006L40.1189 9.94005L40.1073 9.9434L40.0958 9.94703L40.3969 10.9006ZM37.7649 8.10061L38.6796 8.50479L38.683 8.49705L37.7649 8.10061ZM38.1569 7.50861L37.4498 6.80151L37.4498 6.80151L38.1569 7.50861ZM38.7329 7.08461L39.2132 7.96171L39.2212 7.95735L39.2291 7.95286L38.7329 7.08461ZM39.4049 6.78861L39.7006 7.7439L39.7076 7.74174L39.7145 7.73948L39.4049 6.78861ZM40.1249 6.60461L39.9368 5.62246L39.9368 5.62246L40.1249 6.60461ZM40.7969 6.50861L40.8777 7.50534L40.8777 7.50534L40.7969 6.50861ZM41.3649 6.48461V7.48461H42.3649V6.48461H41.3649ZM41.1009 5.65261L40.4853 6.44064L40.4911 6.44522L40.4971 6.44971L41.1009 5.65261ZM39.2369 5.57261L39.4415 6.55147L39.4484 6.55001L39.4554 6.54846L39.2369 5.57261ZM38.3969 5.84461L37.4921 6.27041L37.9373 7.21654L38.8627 6.72953L38.3969 5.84461ZM37.8849 4.75661L37.3417 3.91704L36.608 4.39175L36.9801 5.18241L37.8849 4.75661ZM39.3009 4.14061L39.5907 5.09774L39.5987 5.09525L39.3009 4.14061ZM42.3969 4.02861L42.1028 4.98449L42.1163 4.98845L42.3969 4.02861ZM43.2369 4.55661L42.4754 5.20473L42.4828 5.21344L42.4904 5.22198L43.2369 4.55661ZM43.7009 5.50061L42.7277 5.73041L42.7284 5.73347L43.7009 5.50061ZM43.8369 10.2046H42.8369V10.3787L42.8957 10.5425L43.8369 10.2046ZM44.0609 10.8286V11.8286H45.4824L45.0021 10.4907L44.0609 10.8286ZM41.8689 10.8286L40.9279 11.167L41.1658 11.8286H41.8689V10.8286ZM41.1729 9.54861L41.5867 10.459L41.6036 10.4513L41.6201 10.443L41.1729 9.54861ZM41.3169 9.46061L41.9571 10.2288L41.9919 10.1998L42.024 10.1677L41.3169 9.46061ZM41.3649 9.41261L42.072 10.1197L42.3649 9.82683V9.41261H41.3649ZM41.3649 7.49261H42.3649V6.49261H41.3649V7.49261ZM40.5889 7.76461L41.2646 8.50177L41.2701 8.49674L41.2755 8.49163L40.5889 7.76461ZM40.873 9.44394L40.793 9.53194L42.2729 10.8773L42.3529 10.7893L40.873 9.44394ZM40.7647 9.56443C40.7763 9.55045 40.7778 9.55098 40.7606 9.56651C40.7445 9.58108 40.7182 9.60322 40.6789 9.63318L41.891 11.224C42.0278 11.1198 42.178 10.9925 42.3011 10.8448L40.7647 9.56443ZM40.6602 9.64774C40.597 9.69834 40.5116 9.75768 40.3991 9.82432L41.4187 11.5449C41.5943 11.4409 41.7595 11.3296 41.9096 11.2095L40.6602 9.64774ZM40.3848 9.83296C40.3416 9.85953 40.259 9.89947 40.1189 9.94005L40.675 11.8612C40.9401 11.7844 41.1989 11.6804 41.433 11.5363L40.3848 9.83296ZM40.0958 9.94703C39.9909 9.98015 39.8845 9.99661 39.7729 9.99661V11.9966C40.088 11.9966 40.3976 11.9491 40.698 11.8542L40.0958 9.94703ZM39.7729 9.99661C39.2043 9.99661 38.962 9.85634 38.8561 9.75157C38.7522 9.64883 38.6129 9.41563 38.6129 8.86061H36.6129C36.6129 9.7296 36.8337 10.5644 37.4498 11.1737C38.0638 11.7809 38.9016 11.9966 39.7729 11.9966V9.99661ZM38.6129 8.86061C38.6129 8.70761 38.6402 8.59387 38.6796 8.50478L36.8502 7.69645C36.6869 8.06602 36.6129 8.45895 36.6129 8.86061H38.6129ZM38.683 8.49705C38.7407 8.36339 38.8042 8.27558 38.864 8.21572L37.4498 6.80151C37.1897 7.06164 36.9918 7.36851 36.8469 7.70418L38.683 8.49705ZM38.864 8.21572C38.9489 8.13086 39.062 8.04454 39.2132 7.96171L38.2526 6.20752C37.9558 6.37003 37.6849 6.56637 37.4498 6.80151L38.864 8.21572ZM39.2291 7.95286C39.3959 7.85753 39.553 7.7896 39.7006 7.7439L39.1092 5.83333C38.8089 5.9263 38.518 6.0557 38.2368 6.21637L39.2291 7.95286ZM39.7145 7.73948C39.9018 7.6785 40.1011 7.62735 40.313 7.58677L39.9368 5.62246C39.6474 5.67788 39.3667 5.74939 39.0953 5.83774L39.7145 7.73948ZM40.313 7.58677C40.5377 7.54373 40.7249 7.51773 40.8777 7.50534L40.7161 5.51188C40.4742 5.53149 40.2134 5.56949 39.9368 5.62246L40.313 7.58677ZM40.8777 7.50534C41.0506 7.49133 41.2129 7.48461 41.3649 7.48461V5.48461C41.1543 5.48461 40.9379 5.4939 40.7161 5.51188L40.8777 7.50534ZM42.3649 6.48461V6.34061H40.3649V6.48461H42.3649ZM42.3649 6.34061C42.3649 5.85668 42.232 5.25491 41.7048 4.85552L40.4971 6.44971C40.4618 6.42297 40.4316 6.39171 40.4079 6.35914C40.3847 6.32716 40.3718 6.29974 40.3653 6.28287C40.3537 6.25274 40.3649 6.26292 40.3649 6.34061H42.3649ZM41.7166 4.86459C41.2787 4.52248 40.7226 4.45261 40.2689 4.45261V6.45261C40.4074 6.45261 40.4902 6.46507 40.5312 6.47492C40.5729 6.48494 40.5423 6.48521 40.4853 6.44064L41.7166 4.86459ZM40.2689 4.45261C39.8574 4.45261 39.4399 4.50241 39.0184 4.59677L39.4554 6.54846C39.7486 6.48282 40.0191 6.45261 40.2689 6.45261V4.45261ZM39.0324 4.59375C38.6311 4.6776 38.25 4.79191 37.9312 4.95969L38.8627 6.72953C38.9492 6.68398 39.128 6.61696 39.4415 6.55147L39.0324 4.59375ZM39.3017 5.41882L38.7897 4.33082L36.9801 5.18241L37.4921 6.27041L39.3017 5.41882ZM38.4282 5.59618C38.6876 5.42831 39.0657 5.25666 39.5907 5.09771L39.0111 3.18351C38.3735 3.37656 37.8076 3.61559 37.3417 3.91704L38.4282 5.59618ZM39.5987 5.09525C40.0846 4.94367 40.5763 4.86861 41.0769 4.86861V2.86861C40.3722 2.86861 39.6798 2.97489 39.0031 3.18598L39.5987 5.09525ZM41.0769 4.86861C41.5528 4.86861 41.8848 4.91731 42.1028 4.98439L42.691 3.07283C42.2157 2.92658 41.6677 2.86861 41.0769 2.86861V4.86861ZM42.1163 4.98845C42.2947 5.04057 42.4007 5.11703 42.4754 5.20473L43.9985 3.9085C43.6464 3.49486 43.1925 3.21932 42.6775 3.06878L42.1163 4.98845ZM42.4904 5.22198C42.5783 5.32061 42.6676 5.47588 42.7277 5.73041L44.6742 5.27082C44.5529 4.75734 44.3329 4.28329 43.9834 3.89124L42.4904 5.22198ZM42.7284 5.73347C42.7941 6.00786 42.8369 6.40511 42.8369 6.94861H44.8369C44.8369 6.31878 44.7891 5.7507 44.6734 5.26776L42.7284 5.73347ZM42.8369 6.94861V10.2046H44.8369V6.94861H42.8369ZM42.8957 10.5425L43.1197 11.1665L45.0021 10.4907L44.7781 9.86675L42.8957 10.5425ZM44.0609 9.82861H41.8689V11.8286H44.0609V9.82861ZM42.8099 10.4903L42.5539 9.77827L40.6719 10.455L40.9279 11.167L42.8099 10.4903ZM40.9809 10.5886C41.182 10.5886 41.3884 10.5491 41.5867 10.459L40.7591 8.63825C40.8401 8.60145 40.9185 8.58861 40.9809 8.58861V10.5886ZM41.6201 10.443C41.7115 10.3974 41.8384 10.3277 41.9571 10.2288L40.6767 8.69239C40.6935 8.67839 40.7073 8.66829 40.7165 8.66188C40.7257 8.65537 40.7324 8.65122 40.7355 8.64933C40.7411 8.64591 40.7388 8.64763 40.7257 8.65419L41.6201 10.443ZM42.024 10.1677C42.0241 10.1677 42.0241 10.1676 42.0242 10.1675C42.0243 10.1675 42.0243 10.1674 42.0244 10.1673C42.0245 10.1673 42.0245 10.1672 42.0246 10.1672C42.0246 10.1671 42.0247 10.167 42.0248 10.167C42.0248 10.1669 42.0249 10.1668 42.025 10.1668C42.025 10.1667 42.0251 10.1667 42.0251 10.1666C42.0252 10.1665 42.0253 10.1665 42.0253 10.1664C42.0254 10.1664 42.0254 10.1663 42.0255 10.1662C42.0256 10.1662 42.0256 10.1661 42.0257 10.166C42.0258 10.166 42.0258 10.1659 42.0259 10.1659C42.0259 10.1658 42.026 10.1657 42.0261 10.1657C42.0261 10.1656 42.0262 10.1656 42.0262 10.1655C42.0263 10.1654 42.0264 10.1654 42.0264 10.1653C42.0265 10.1653 42.0265 10.1652 42.0266 10.1651C42.0267 10.1651 42.0267 10.165 42.0268 10.1649C42.0269 10.1649 42.0269 10.1648 42.027 10.1648C42.027 10.1647 42.0271 10.1646 42.0272 10.1646C42.0272 10.1645 42.0273 10.1645 42.0273 10.1644C42.0274 10.1643 42.0275 10.1643 42.0275 10.1642C42.0276 10.1642 42.0276 10.1641 42.0277 10.164C42.0278 10.164 42.0278 10.1639 42.0279 10.1639C42.0279 10.1638 42.028 10.1637 42.0281 10.1637C42.0281 10.1636 42.0282 10.1636 42.0282 10.1635C42.0283 10.1634 42.0284 10.1634 42.0284 10.1633C42.0285 10.1633 42.0285 10.1632 42.0286 10.1631C42.0287 10.1631 42.0287 10.163 42.0288 10.163C42.0288 10.1629 42.0289 10.1629 42.0289 10.1628C42.029 10.1627 42.0291 10.1627 42.0291 10.1626C42.0292 10.1626 42.0292 10.1625 42.0293 10.1624C42.0294 10.1624 42.0294 10.1623 42.0295 10.1623C42.0295 10.1622 42.0296 10.1621 42.0297 10.1621C42.0297 10.162 42.0298 10.162 42.0298 10.1619C42.0299 10.1618 42.0299 10.1618 42.03 10.1617C42.0301 10.1617 42.0301 10.1616 42.0302 10.1616C42.0302 10.1615 42.0303 10.1614 42.0304 10.1614C42.0304 10.1613 42.0305 10.1613 42.0305 10.1612C42.0306 10.1611 42.0306 10.1611 42.0307 10.161C42.0308 10.161 42.0308 10.1609 42.0309 10.1609C42.0309 10.1608 42.031 10.1607 42.0311 10.1607C42.0311 10.1606 42.0312 10.1606 42.0312 10.1605C42.0313 10.1605 42.0313 10.1604 42.0314 10.1603C42.0315 10.1603 42.0315 10.1602 42.0316 10.1602C42.0316 10.1601 42.0317 10.1601 42.0317 10.16C42.0318 10.1599 42.0319 10.1599 42.0319 10.1598C42.032 10.1598 42.032 10.1597 42.0321 10.1597C42.0321 10.1596 42.0322 10.1595 42.0323 10.1595C42.0323 10.1594 42.0324 10.1594 42.0324 10.1593C42.0325 10.1593 42.0325 10.1592 42.0326 10.1591C42.0327 10.1591 42.0327 10.159 42.0328 10.159C42.0328 10.1589 42.0329 10.1589 42.0329 10.1588C42.033 10.1587 42.033 10.1587 42.0331 10.1586C42.0332 10.1586 42.0332 10.1585 42.0333 10.1585C42.0333 10.1584 42.0334 10.1584 42.0334 10.1583C42.0335 10.1582 42.0336 10.1582 42.0336 10.1581C42.0337 10.1581 42.0337 10.158 42.0338 10.158C42.0338 10.1579 42.0339 10.1579 42.0339 10.1578C42.034 10.1577 42.0341 10.1577 42.0341 10.1576C42.0342 10.1576 42.0342 10.1575 42.0343 10.1575C42.0343 10.1574 42.0344 10.1574 42.0344 10.1573C42.0345 10.1572 42.0346 10.1572 42.0346 10.1571C42.0347 10.1571 42.0347 10.157 42.0348 10.157C42.0348 10.1569 42.0349 10.1569 42.0349 10.1568C42.035 10.1567 42.0351 10.1567 42.0351 10.1566C42.0352 10.1566 42.0352 10.1565 42.0353 10.1565C42.0353 10.1564 42.0354 10.1564 42.0354 10.1563C42.0355 10.1563 42.0355 10.1562 42.0356 10.1561C42.0357 10.1561 42.0357 10.156 42.0358 10.156C42.0358 10.1559 42.0359 10.1559 42.0359 10.1558C42.036 10.1558 42.036 10.1557 42.0361 10.1557C42.0361 10.1556 42.0362 10.1555 42.0362 10.1555C42.0363 10.1554 42.0364 10.1554 42.0364 10.1553C42.0365 10.1553 42.0365 10.1552 42.0366 10.1552C42.0366 10.1551 42.0367 10.1551 42.0367 10.155C42.0368 10.155 42.0368 10.1549 42.0369 10.1548C42.0369 10.1548 42.037 10.1547 42.0371 10.1547C42.0371 10.1546 42.0372 10.1546 42.0372 10.1545C42.0373 10.1545 42.0373 10.1544 42.0374 10.1544C42.0374 10.1543 42.0375 10.1543 42.0375 10.1542C42.0376 10.1542 42.0376 10.1541 42.0377 10.1541C42.0377 10.154 42.0378 10.1539 42.0378 10.1539C42.0379 10.1538 42.038 10.1538 42.038 10.1537C42.0381 10.1537 42.0381 10.1536 42.0382 10.1536C42.0382 10.1535 42.0383 10.1535 42.0383 10.1534C42.0384 10.1534 42.0384 10.1533 42.0385 10.1533C42.0385 10.1532 42.0386 10.1532 42.0386 10.1531C42.0387 10.1531 42.0387 10.153 42.0388 10.1529C42.0388 10.1529 42.0389 10.1528 42.0389 10.1528C42.039 10.1527 42.039 10.1527 42.0391 10.1526C42.0392 10.1526 42.0392 10.1525 42.0393 10.1525C42.0393 10.1524 42.0394 10.1524 42.0394 10.1523C42.0395 10.1523 42.0395 10.1522 42.0396 10.1522C42.0396 10.1521 42.0397 10.1521 42.0397 10.152C42.0398 10.152 42.0398 10.1519 42.0399 10.1519C42.0399 10.1518 42.04 10.1518 42.04 10.1517C42.0401 10.1517 42.0401 10.1516 42.0402 10.1516C42.0402 10.1515 42.0403 10.1515 42.0403 10.1514C42.0404 10.1514 42.0404 10.1513 42.0405 10.1513C42.0405 10.1512 42.0406 10.1512 42.0406 10.1511C42.0407 10.1511 42.0407 10.151 42.0408 10.151C42.0408 10.1509 42.0409 10.1509 42.0409 10.1508C42.041 10.1508 42.041 10.1507 42.0411 10.1507C42.0411 10.1506 42.0412 10.1506 42.0412 10.1505C42.0413 10.1505 42.0413 10.1504 42.0414 10.1504C42.0414 10.1503 42.0415 10.1503 42.0415 10.1502C42.0416 10.1502 42.0416 10.1501 42.0417 10.1501C42.0417 10.15 42.0418 10.15 42.0418 10.1499C42.0419 10.1499 42.0419 10.1498 42.042 10.1498C42.042 10.1497 42.0421 10.1497 42.0421 10.1496C42.0422 10.1496 42.0422 10.1495 42.0423 10.1495C42.0423 10.1494 42.0424 10.1494 42.0424 10.1493C42.0425 10.1493 42.0425 10.1492 42.0426 10.1492C42.0426 10.1491 42.0427 10.1491 42.0427 10.149C42.0428 10.149 42.0428 10.1489 42.0429 10.1489C42.0429 10.1488 42.043 10.1488 42.043 10.1487C42.0431 10.1487 42.0431 10.1486 42.0432 10.1486C42.0432 10.1485 42.0433 10.1485 42.0433 10.1484C42.0434 10.1484 42.0434 10.1483 42.0435 10.1483C42.0435 10.1482 42.0435 10.1482 42.0436 10.1481C42.0436 10.1481 42.0437 10.148 42.0437 10.148C42.0438 10.148 42.0438 10.1479 42.0439 10.1479C42.0439 10.1478 42.044 10.1478 42.044 10.1477C42.0441 10.1477 42.0441 10.1476 42.0442 10.1476C42.0442 10.1475 42.0443 10.1475 42.0443 10.1474C42.0444 10.1474 42.0444 10.1473 42.0445 10.1473C42.0445 10.1472 42.0445 10.1472 42.0446 10.1471C42.0446 10.1471 42.0447 10.147 42.0447 10.147C42.0448 10.147 42.0448 10.1469 42.0449 10.1469C42.0449 10.1468 42.045 10.1468 42.045 10.1467C42.0451 10.1467 42.0451 10.1466 42.0452 10.1466C42.0452 10.1465 42.0453 10.1465 42.0453 10.1464C42.0453 10.1464 42.0454 10.1463 42.0454 10.1463C42.0455 10.1463 42.0455 10.1462 42.0456 10.1462C42.0456 10.1461 42.0457 10.1461 42.0457 10.146C42.0458 10.146 42.0458 10.1459 42.0459 10.1459C42.0459 10.1458 42.0459 10.1458 42.046 10.1457C42.046 10.1457 42.0461 10.1457 42.0461 10.1456C42.0462 10.1456 42.0462 10.1455 42.0463 10.1455C42.0463 10.1454 42.0464 10.1454 42.0464 10.1453C42.0465 10.1453 42.0465 10.1452 42.0465 10.1452C42.0466 10.1452 42.0466 10.1451 42.0467 10.1451C42.0467 10.145 42.0468 10.145 42.0468 10.1449C42.0469 10.1449 42.0469 10.1448 42.047 10.1448C42.047 10.1447 42.047 10.1447 42.0471 10.1447C42.0471 10.1446 42.0472 10.1446 42.0472 10.1445C42.0473 10.1445 42.0473 10.1444 42.0474 10.1444C42.0474 10.1443 42.0474 10.1443 42.0475 10.1442C42.0475 10.1442 42.0476 10.1442 42.0476 10.1441C42.0477 10.1441 42.0477 10.144 42.0478 10.144C42.0478 10.1439 42.0478 10.1439 42.0479 10.1438C42.0479 10.1438 42.048 10.1438 42.048 10.1437C42.0481 10.1437 42.0481 10.1436 42.0482 10.1436C42.0482 10.1435 42.0482 10.1435 42.0483 10.1435C42.0483 10.1434 42.0484 10.1434 42.0484 10.1433C42.0485 10.1433 42.0485 10.1432 42.0486 10.1432C42.0486 10.1431 42.0486 10.1431 42.0487 10.1431C42.0487 10.143 42.0488 10.143 42.0488 10.1429C42.0489 10.1429 42.0489 10.1428 42.0489 10.1428C42.049 10.1428 42.049 10.1427 42.0491 10.1427C42.0491 10.1426 42.0492 10.1426 42.0492 10.1425C42.0492 10.1425 42.0493 10.1425 42.0493 10.1424C42.0494 10.1424 42.0494 10.1423 42.0495 10.1423C42.0495 10.1422 42.0495 10.1422 42.0496 10.1422C42.0496 10.1421 42.0497 10.1421 42.0497 10.142C42.0498 10.142 42.0498 10.1419 42.0498 10.1419C42.0499 10.1419 42.0499 10.1418 42.05 10.1418C42.05 10.1417 42.0501 10.1417 42.0501 10.1416C42.0501 10.1416 42.0502 10.1416 42.0502 10.1415C42.0503 10.1415 42.0503 10.1414 42.0504 10.1414C42.0504 10.1413 42.0504 10.1413 42.0505 10.1413C42.0505 10.1412 42.0506 10.1412 42.0506 10.1411C42.0506 10.1411 42.0507 10.1411 42.0507 10.141C42.0508 10.141 42.0508 10.1409 42.0509 10.1409C42.0509 10.1408 42.0509 10.1408 42.051 10.1408C42.051 10.1407 42.0511 10.1407 42.0511 10.1406C42.0511 10.1406 42.0512 10.1406 42.0512 10.1405C42.0513 10.1405 42.0513 10.1404 42.0513 10.1404C42.0514 10.1404 42.0514 10.1403 42.0515 10.1403C42.0515 10.1402 42.0516 10.1402 42.0516 10.1401C42.0516 10.1401 42.0517 10.1401 42.0517 10.14C42.0518 10.14 42.0518 10.1399 42.0518 10.1399C42.0519 10.1399 42.0519 10.1398 42.052 10.1398C42.052 10.1397 42.052 10.1397 42.0521 10.1397C42.0521 10.1396 42.0522 10.1396 42.0522 10.1395C42.0522 10.1395 42.0523 10.1395 42.0523 10.1394C42.0524 10.1394 42.0524 10.1393 42.0524 10.1393C42.0525 10.1393 42.0525 10.1392 42.0526 10.1392C42.0526 10.1391 42.0526 10.1391 42.0527 10.1391C42.0527 10.139 42.0528 10.139 42.0528 10.1389C42.0528 10.1389 42.0529 10.1389 42.0529 10.1388C42.053 10.1388 42.053 10.1387 42.053 10.1387C42.0531 10.1387 42.0531 10.1386 42.0532 10.1386C42.0532 10.1385 42.0532 10.1385 42.0533 10.1385C42.0533 10.1384 42.0533 10.1384 42.0534 10.1384C42.0534 10.1383 42.0535 10.1383 42.0535 10.1382C42.0535 10.1382 42.0536 10.1382 42.0536 10.1381C42.0537 10.1381 42.0537 10.138 42.0537 10.138C42.0538 10.138 42.0538 10.1379 42.0539 10.1379C42.0539 10.1379 42.0539 10.1378 42.054 10.1378C42.054 10.1377 42.054 10.1377 42.0541 10.1377C42.0541 10.1376 42.0542 10.1376 42.0542 10.1375C42.0542 10.1375 42.0543 10.1375 42.0543 10.1374C42.0543 10.1374 42.0544 10.1374 42.0544 10.1373C42.0545 10.1373 42.0545 10.1372 42.0545 10.1372C42.0546 10.1372 42.0546 10.1371 42.0546 10.1371C42.0547 10.1371 42.0547 10.137 42.0548 10.137C42.0548 10.1369 42.0548 10.1369 42.0549 10.1369C42.0549 10.1368 42.0549 10.1368 42.055 10.1368C42.055 10.1367 42.0551 10.1367 42.0551 10.1366C42.0551 10.1366 42.0552 10.1366 42.0552 10.1365C42.0552 10.1365 42.0553 10.1365 42.0553 10.1364C42.0554 10.1364 42.0554 10.1363 42.0554 10.1363C42.0555 10.1363 42.0555 10.1362 42.0555 10.1362C42.0556 10.1362 42.0556 10.1361 42.0556 10.1361C42.0557 10.1361 42.0557 10.136 42.0558 10.136C42.0558 10.1359 42.0558 10.1359 42.0559 10.1359C42.0559 10.1358 42.0559 10.1358 42.056 10.1358C42.056 10.1357 42.056 10.1357 42.0561 10.1357C42.0561 10.1356 42.0562 10.1356 42.0562 10.1355C42.0562 10.1355 42.0563 10.1355 42.0563 10.1354C42.0563 10.1354 42.0564 10.1354 42.0564 10.1353C42.0564 10.1353 42.0565 10.1353 42.0565 10.1352C42.0565 10.1352 42.0566 10.1352 42.0566 10.1351C42.0567 10.1351 42.0567 10.135 42.0567 10.135C42.0568 10.135 42.0568 10.1349 42.0568 10.1349C42.0569 10.1349 42.0569 10.1348 42.0569 10.1348C42.057 10.1348 42.057 10.1347 42.057 10.1347C42.0571 10.1347 42.0571 10.1346 42.0571 10.1346C42.0572 10.1346 42.0572 10.1345 42.0573 10.1345C42.0573 10.1345 42.0573 10.1344 42.0574 10.1344C42.0574 10.1344 42.0574 10.1343 42.0575 10.1343C42.0575 10.1342 42.0575 10.1342 42.0576 10.1342C42.0576 10.1341 42.0576 10.1341 42.0577 10.1341C42.0577 10.134 42.0577 10.134 42.0578 10.134C42.0578 10.1339 42.0578 10.1339 42.0579 10.1339C42.0579 10.1338 42.0579 10.1338 42.058 10.1338C42.058 10.1337 42.058 10.1337 42.0581 10.1337C42.0581 10.1336 42.0581 10.1336 42.0582 10.1336C42.0582 10.1335 42.0582 10.1335 42.0583 10.1335C42.0583 10.1334 42.0583 10.1334 42.0584 10.1334C42.0584 10.1333 42.0584 10.1333 42.0585 10.1333C42.0585 10.1332 42.0585 10.1332 42.0586 10.1332C42.0586 10.1331 42.0586 10.1331 42.0587 10.1331C42.0587 10.133 42.0587 10.133 42.0588 10.133C42.0588 10.1329 42.0588 10.1329 42.0589 10.1329C42.0589 10.1328 42.0589 10.1328 42.059 10.1328C42.059 10.1327 42.059 10.1327 42.0591 10.1327C42.0591 10.1326 42.0591 10.1326 42.0592 10.1326C42.0592 10.1325 42.0592 10.1325 42.0593 10.1325C42.0593 10.1325 42.0593 10.1324 42.0594 10.1324C42.0594 10.1324 42.0594 10.1323 42.0595 10.1323C42.0595 10.1323 42.0595 10.1322 42.0595 10.1322C42.0596 10.1322 42.0596 10.1321 42.0596 10.1321C42.0597 10.1321 42.0597 10.132 42.0597 10.132C42.0598 10.132 42.0598 10.1319 42.0598 10.1319C42.0599 10.1319 42.0599 10.1318 42.0599 10.1318C42.06 10.1318 42.06 10.1318 42.06 10.1317C42.0601 10.1317 42.0601 10.1317 42.0601 10.1316C42.0601 10.1316 42.0602 10.1316 42.0602 10.1315C42.0602 10.1315 42.0603 10.1315 42.0603 10.1314C42.0603 10.1314 42.0604 10.1314 42.0604 10.1313C42.0604 10.1313 42.0605 10.1313 42.0605 10.1313C42.0605 10.1312 42.0605 10.1312 42.0606 10.1312C42.0606 10.1311 42.0606 10.1311 42.0607 10.1311C42.0607 10.131 42.0607 10.131 42.0608 10.131C42.0608 10.131 42.0608 10.1309 42.0608 10.1309C42.0609 10.1309 42.0609 10.1308 42.0609 10.1308C42.061 10.1308 42.061 10.1307 42.061 10.1307C42.0611 10.1307 42.0611 10.1307 42.0611 10.1306C42.0611 10.1306 42.0612 10.1306 42.0612 10.1305C42.0612 10.1305 42.0613 10.1305 42.0613 10.1304C42.0613 10.1304 42.0614 10.1304 42.0614 10.1304C42.0614 10.1303 42.0614 10.1303 42.0615 10.1303C42.0615 10.1302 42.0615 10.1302 42.0616 10.1302C42.0616 10.1302 42.0616 10.1301 42.0616 10.1301C42.0617 10.1301 42.0617 10.13 42.0617 10.13C42.0618 10.13 42.0618 10.1299 42.0618 10.1299C42.0619 10.1299 42.0619 10.1299 42.0619 10.1298C42.0619 10.1298 42.062 10.1298 42.062 10.1297C42.062 10.1297 42.0621 10.1297 42.0621 10.1297C42.0621 10.1296 42.0621 10.1296 42.0622 10.1296C42.0622 10.1295 42.0622 10.1295 42.0622 10.1295C42.0623 10.1295 42.0623 10.1294 42.0623 10.1294C42.0624 10.1294 42.0624 10.1294 42.0624 10.1293C42.0624 10.1293 42.0625 10.1293 42.0625 10.1292C42.0625 10.1292 42.0626 10.1292 42.0626 10.1292C42.0626 10.1291 42.0626 10.1291 42.0627 10.1291C42.0627 10.129 42.0627 10.129 42.0627 10.129C42.0628 10.129 42.0628 10.1289 42.0628 10.1289C42.0629 10.1289 42.0629 10.1289 42.0629 10.1288C42.0629 10.1288 42.063 10.1288 42.063 10.1287C42.063 10.1287 42.063 10.1287 42.0631 10.1287C42.0631 10.1286 42.0631 10.1286 42.0632 10.1286C42.0632 10.1286 42.0632 10.1285 42.0632 10.1285C42.0633 10.1285 42.0633 10.1284 42.0633 10.1284C42.0633 10.1284 42.0634 10.1284 42.0634 10.1283C42.0634 10.1283 42.0635 10.1283 42.0635 10.1283C42.0635 10.1282 42.0635 10.1282 42.0636 10.1282C42.0636 10.1282 42.0636 10.1281 42.0636 10.1281C42.0637 10.1281 42.0637 10.1281 42.0637 10.128C42.0637 10.128 42.0638 10.128 42.0638 10.128C42.0638 10.1279 42.0638 10.1279 42.0639 10.1279C42.0639 10.1278 42.0639 10.1278 42.0639 10.1278C42.064 10.1278 42.064 10.1277 42.064 10.1277C42.064 10.1277 42.0641 10.1277 42.0641 10.1276C42.0641 10.1276 42.0641 10.1276 42.0642 10.1276C42.0642 10.1275 42.0642 10.1275 42.0642 10.1275C42.0643 10.1275 42.0643 10.1274 42.0643 10.1274C42.0643 10.1274 42.0644 10.1274 42.0644 10.1273C42.0644 10.1273 42.0644 10.1273 42.0645 10.1273C42.0645 10.1272 42.0645 10.1272 42.0645 10.1272C42.0646 10.1272 42.0646 10.1271 42.0646 10.1271C42.0646 10.1271 42.0647 10.1271 42.0647 10.127C42.0647 10.127 42.0647 10.127 42.0648 10.127C42.0648 10.1269 42.0648 10.1269 42.0648 10.1269C42.0649 10.1269 42.0649 10.1269 42.0649 10.1268C42.0649 10.1268 42.065 10.1268 42.065 10.1268C42.065 10.1267 42.065 10.1267 42.0651 10.1267C42.0651 10.1267 42.0651 10.1266 42.0651 10.1266C42.0652 10.1266 42.0652 10.1266 42.0652 10.1265C42.0652 10.1265 42.0652 10.1265 42.0653 10.1265C42.0653 10.1264 42.0653 10.1264 42.0653 10.1264C42.0654 10.1264 42.0654 10.1264 42.0654 10.1263C42.0654 10.1263 42.0655 10.1263 42.0655 10.1263C42.0655 10.1262 42.0655 10.1262 42.0655 10.1262C42.0656 10.1262 42.0656 10.1261 42.0656 10.1261C42.0656 10.1261 42.0657 10.1261 42.0657 10.1261C42.0657 10.126 42.0657 10.126 42.0658 10.126C42.0658 10.126 42.0658 10.1259 42.0658 10.1259C42.0658 10.1259 42.0659 10.1259 42.0659 10.1259C42.0659 10.1258 42.0659 10.1258 42.066 10.1258C42.066 10.1258 42.066 10.1257 42.066 10.1257C42.066 10.1257 42.0661 10.1257 42.0661 10.1257C42.0661 10.1256 42.0661 10.1256 42.0662 10.1256C42.0662 10.1256 42.0662 10.1255 42.0662 10.1255C42.0662 10.1255 42.0663 10.1255 42.0663 10.1255C42.0663 10.1254 42.0663 10.1254 42.0663 10.1254C42.0664 10.1254 42.0664 10.1253 42.0664 10.1253C42.0664 10.1253 42.0665 10.1253 42.0665 10.1253C42.0665 10.1252 42.0665 10.1252 42.0665 10.1252C42.0666 10.1252 42.0666 10.1252 42.0666 10.1251C42.0666 10.1251 42.0666 10.1251 42.0667 10.1251C42.0667 10.1251 42.0667 10.125 42.0667 10.125C42.0667 10.125 42.0668 10.125 42.0668 10.125C42.0668 10.1249 42.0668 10.1249 42.0669 10.1249C42.0669 10.1249 42.0669 10.1248 42.0669 10.1248C42.0669 10.1248 42.067 10.1248 42.067 10.1248C42.067 10.1247 42.067 10.1247 42.067 10.1247C42.0671 10.1247 42.0671 10.1247 42.0671 10.1246C42.0671 10.1246 42.0671 10.1246 42.0672 10.1246C42.0672 10.1246 42.0672 10.1245 42.0672 10.1245C42.0672 10.1245 42.0673 10.1245 42.0673 10.1245C42.0673 10.1244 42.0673 10.1244 42.0673 10.1244C42.0674 10.1244 42.0674 10.1244 42.0674 10.1243C42.0674 10.1243 42.0674 10.1243 42.0674 10.1243C42.0675 10.1243 42.0675 10.1243 42.0675 10.1242C42.0675 10.1242 42.0675 10.1242 42.0676 10.1242C42.0676 10.1242 42.0676 10.1241 42.0676 10.1241C42.0676 10.1241 42.0677 10.1241 42.0677 10.1241C42.0677 10.124 42.0677 10.124 42.0677 10.124C42.0678 10.124 42.0678 10.124 42.0678 10.124C42.0678 10.1239 42.0678 10.1239 42.0678 10.1239C42.0679 10.1239 42.0679 10.1239 42.0679 10.1238C42.0679 10.1238 42.0679 10.1238 42.068 10.1238C42.068 10.1238 42.068 10.1237 42.068 10.1237C42.068 10.1237 42.068 10.1237 42.0681 10.1237C42.0681 10.1237 42.0681 10.1236 42.0681 10.1236C42.0681 10.1236 42.0682 10.1236 42.0682 10.1236C42.0682 10.1236 42.0682 10.1235 42.0682 10.1235C42.0682 10.1235 42.0683 10.1235 42.0683 10.1235C42.0683 10.1234 42.0683 10.1234 42.0683 10.1234C42.0683 10.1234 42.0684 10.1234 42.0684 10.1234C42.0684 10.1233 42.0684 10.1233 42.0684 10.1233C42.0684 10.1233 42.0685 10.1233 42.0685 10.1233C42.0685 10.1232 42.0685 10.1232 42.0685 10.1232C42.0685 10.1232 42.0686 10.1232 42.0686 10.1232C42.0686 10.1231 42.0686 10.1231 42.0686 10.1231C42.0686 10.1231 42.0687 10.1231 42.0687 10.1231C42.0687 10.123 42.0687 10.123 42.0687 10.123C42.0687 10.123 42.0688 10.123 42.0688 10.123C42.0688 10.1229 42.0688 10.1229 42.0688 10.1229C42.0688 10.1229 42.0689 10.1229 42.0689 10.1229C42.0689 10.1228 42.0689 10.1228 42.0689 10.1228C42.0689 10.1228 42.069 10.1228 42.069 10.1228C42.069 10.1228 42.069 10.1227 42.069 10.1227C42.069 10.1227 42.0691 10.1227 42.0691 10.1227C42.0691 10.1227 42.0691 10.1226 42.0691 10.1226C42.0691 10.1226 42.0691 10.1226 42.0692 10.1226C42.0692 10.1226 42.0692 10.1226 42.0692 10.1225C42.0692 10.1225 42.0692 10.1225 42.0692 10.1225C42.0693 10.1225 42.0693 10.1225 42.0693 10.1224C42.0693 10.1224 42.0693 10.1224 42.0693 10.1224C42.0694 10.1224 42.0694 10.1224 42.0694 10.1224C42.0694 10.1223 42.0694 10.1223 42.0694 10.1223C42.0694 10.1223 42.0695 10.1223 42.0695 10.1223C42.0695 10.1223 42.0695 10.1222 42.0695 10.1222C42.0695 10.1222 42.0695 10.1222 42.0696 10.1222C42.0696 10.1222 42.0696 10.1222 42.0696 10.1221C42.0696 10.1221 42.0696 10.1221 42.0696 10.1221C42.0697 10.1221 42.0697 10.1221 42.0697 10.1221C42.0697 10.122 42.0697 10.122 42.0697 10.122C42.0697 10.122 42.0697 10.122 42.0698 10.122C42.0698 10.122 42.0698 10.1219 42.0698 10.1219C42.0698 10.1219 42.0698 10.1219 42.0698 10.1219C42.0699 10.1219 42.0699 10.1219 42.0699 10.1219C42.0699 10.1218 42.0699 10.1218 42.0699 10.1218C42.0699 10.1218 42.0699 10.1218 42.07 10.1218C42.07 10.1218 42.07 10.1218 42.07 10.1217C42.07 10.1217 42.07 10.1217 42.07 10.1217C42.0701 10.1217 42.0701 10.1217 42.0701 10.1217C42.0701 10.1217 42.0701 10.1216 42.0701 10.1216C42.0701 10.1216 42.0701 10.1216 42.0702 10.1216C42.0702 10.1216 42.0702 10.1216 42.0702 10.1216C42.0702 10.1215 42.0702 10.1215 42.0702 10.1215C42.0702 10.1215 42.0702 10.1215 42.0703 10.1215C42.0703 10.1215 42.0703 10.1215 42.0703 10.1214C42.0703 10.1214 42.0703 10.1214 42.0703 10.1214C42.0703 10.1214 42.0704 10.1214 42.0704 10.1214C42.0704 10.1214 42.0704 10.1214 42.0704 10.1213C42.0704 10.1213 42.0704 10.1213 42.0704 10.1213C42.0704 10.1213 42.0705 10.1213 42.0705 10.1213C42.0705 10.1213 42.0705 10.1212 42.0705 10.1212C42.0705 10.1212 42.0705 10.1212 42.0705 10.1212C42.0705 10.1212 42.0706 10.1212 42.0706 10.1212C42.0706 10.1212 42.0706 10.1211 42.0706 10.1211C42.0706 10.1211 42.0706 10.1211 42.0706 10.1211C42.0706 10.1211 42.0707 10.1211 42.0707 10.1211C42.0707 10.1211 42.0707 10.1211 42.0707 10.121C42.0707 10.121 42.0707 10.121 42.0707 10.121C42.0707 10.121 42.0707 10.121 42.0708 10.121C42.0708 10.121 42.0708 10.121 42.0708 10.121C42.0708 10.1209 42.0708 10.1209 42.0708 10.1209C42.0708 10.1209 42.0708 10.1209 42.0708 10.1209C42.0709 10.1209 42.0709 10.1209 42.0709 10.1209C42.0709 10.1209 42.0709 10.1208 42.0709 10.1208C42.0709 10.1208 42.0709 10.1208 42.0709 10.1208C42.0709 10.1208 42.071 10.1208 42.071 10.1208C42.071 10.1208 42.071 10.1208 42.071 10.1208C42.071 10.1207 42.071 10.1207 42.071 10.1207C42.071 10.1207 42.071 10.1207 42.071 10.1207C42.0711 10.1207 42.0711 10.1207 42.0711 10.1207C42.0711 10.1207 42.0711 10.1207 42.0711 10.1206C42.0711 10.1206 42.0711 10.1206 42.0711 10.1206C42.0711 10.1206 42.0711 10.1206 42.0711 10.1206C42.0712 10.1206 42.0712 10.1206 42.0712 10.1206C42.0712 10.1206 42.0712 10.1206 42.0712 10.1205C42.0712 10.1205 42.0712 10.1205 42.0712 10.1205C42.0712 10.1205 42.0712 10.1205 42.0712 10.1205C42.0713 10.1205 42.0713 10.1205 42.0713 10.1205C42.0713 10.1205 42.0713 10.1205 42.0713 10.1204C42.0713 10.1204 42.0713 10.1204 42.0713 10.1204C42.0713 10.1204 42.0713 10.1204 42.0713 10.1204C42.0713 10.1204 42.0714 10.1204 42.0714 10.1204C42.0714 10.1204 42.0714 10.1204 42.0714 10.1204C42.0714 10.1204 42.0714 10.1203 42.0714 10.1203C42.0714 10.1203 42.0714 10.1203 42.0714 10.1203C42.0714 10.1203 42.0714 10.1203 42.0714 10.1203C42.0715 10.1203 42.0715 10.1203 42.0715 10.1203C42.0715 10.1203 42.0715 10.1203 42.0715 10.1203C42.0715 10.1202 42.0715 10.1202 42.0715 10.1202C42.0715 10.1202 42.0715 10.1202 42.0715 10.1202C42.0715 10.1202 42.0715 10.1202 42.0715 10.1202C42.0715 10.1202 42.0716 10.1202 42.0716 10.1202C42.0716 10.1202 42.0716 10.1202 42.0716 10.1202C42.0716 10.1202 42.0716 10.1201 42.0716 10.1201C42.0716 10.1201 42.0716 10.1201 42.0716 10.1201C42.0716 10.1201 42.0716 10.1201 42.0716 10.1201C42.0716 10.1201 42.0716 10.1201 42.0716 10.1201C42.0717 10.1201 42.0717 10.1201 42.0717 10.1201C42.0717 10.1201 42.0717 10.1201 42.0717 10.1201C42.0717 10.1201 42.0717 10.12 42.0717 10.12C42.0717 10.12 42.0717 10.12 42.0717 10.12C42.0717 10.12 42.0717 10.12 42.0717 10.12C42.0717 10.12 42.0717 10.12 42.0717 10.12C42.0717 10.12 42.0718 10.12 42.0718 10.12C42.0718 10.12 42.0718 10.12 42.0718 10.12C42.0718 10.12 42.0718 10.12 42.0718 10.12C42.0718 10.12 42.0718 10.1199 42.0718 10.1199C42.0718 10.1199 42.0718 10.1199 42.0718 10.1199C42.0718 10.1199 42.0718 10.1199 42.0718 10.1199C42.0718 10.1199 42.0718 10.1199 42.0718 10.1199C42.0718 10.1199 42.0718 10.1199 42.0718 10.1199C42.0718 10.1199 42.0719 10.1199 42.0719 10.1199C42.0719 10.1199 42.0719 10.1199 42.0719 10.1199C42.0719 10.1199 42.0719 10.1199 42.0719 10.1199C42.0719 10.1199 42.0719 10.1199 42.0719 10.1199C42.0719 10.1199 42.0719 10.1198 42.0719 10.1198C42.0719 10.1198 42.0719 10.1198 42.0719 10.1198C42.0719 10.1198 42.0719 10.1198 42.0719 10.1198C42.0719 10.1198 42.0719 10.1198 42.0719 10.1198C42.0719 10.1198 42.0719 10.1198 42.0719 10.1198C42.0719 10.1198 42.0719 10.1198 42.0719 10.1198C42.0719 10.1198 42.0719 10.1198 42.0719 10.1198C42.0719 10.1198 42.072 10.1198 42.072 10.1198C42.072 10.1198 42.072 10.1198 42.072 10.1198C42.072 10.1198 42.072 10.1198 42.072 10.1198C42.072 10.1198 42.072 10.1198 42.072 10.1198C42.072 10.1198 42.072 10.1198 42.072 10.1198C42.072 10.1198 42.072 10.1198 42.072 10.1198C42.072 10.1198 42.072 10.1198 42.072 10.1198C42.072 10.1198 42.072 10.1197 42.072 10.1197C42.072 10.1197 42.072 10.1197 42.072 10.1197C42.072 10.1197 42.072 10.1197 42.072 10.1197C42.072 10.1197 42.072 10.1197 42.072 10.1197C42.072 10.1197 42.072 10.1197 42.072 10.1197C42.072 10.1197 42.072 10.1197 42.072 10.1197C42.072 10.1197 42.072 10.1197 42.072 10.1197C42.072 10.1197 42.072 10.1197 42.072 10.1197C42.072 10.1197 42.072 10.1197 42.072 10.1197C42.072 10.1197 42.072 10.1197 42.072 10.1197C42.072 10.1197 42.072 10.1197 42.072 10.1197C42.072 10.1197 42.072 10.1197 42.072 10.1197C42.072 10.1197 42.072 10.1197 41.3649 9.41261C40.6578 8.70551 40.6578 8.70551 40.6578 8.70551C40.6578 8.70551 40.6578 8.70551 40.6578 8.70551C40.6578 8.70551 40.6578 8.70551 40.6578 8.70551C40.6578 8.70551 40.6578 8.70551 40.6578 8.70551C40.6578 8.70551 40.6578 8.70551 40.6578 8.70551C40.6578 8.70551 40.6578 8.70551 40.6578 8.70551C40.6578 8.70551 40.6578 8.70551 40.6578 8.70551C40.6578 8.70552 40.6578 8.70552 40.6578 8.70552C40.6578 8.70552 40.6578 8.70552 40.6578 8.70552C40.6578 8.70552 40.6578 8.70552 40.6578 8.70552C40.6578 8.70553 40.6578 8.70553 40.6578 8.70553C40.6578 8.70553 40.6578 8.70553 40.6578 8.70553C40.6578 8.70553 40.6578 8.70554 40.6578 8.70554C40.6578 8.70554 40.6578 8.70554 40.6578 8.70554C40.6578 8.70554 40.6578 8.70555 40.6578 8.70555C40.6578 8.70555 40.6578 8.70555 40.6578 8.70555C40.6578 8.70555 40.6578 8.70556 40.6578 8.70556C40.6578 8.70556 40.6578 8.70556 40.6577 8.70557C40.6577 8.70557 40.6577 8.70557 40.6577 8.70557C40.6577 8.70557 40.6577 8.70558 40.6577 8.70558C40.6577 8.70558 40.6577 8.70558 40.6577 8.70559C40.6577 8.70559 40.6577 8.70559 40.6577 8.70559C40.6577 8.7056 40.6577 8.7056 40.6577 8.7056C40.6577 8.70561 40.6577 8.70561 40.6577 8.70561C40.6577 8.70561 40.6577 8.70562 40.6577 8.70562C40.6577 8.70562 40.6577 8.70563 40.6577 8.70563C40.6577 8.70563 40.6577 8.70564 40.6577 8.70564C40.6577 8.70564 40.6577 8.70565 40.6577 8.70565C40.6577 8.70565 40.6577 8.70566 40.6577 8.70566C40.6576 8.70566 40.6576 8.70567 40.6576 8.70567C40.6576 8.70567 40.6576 8.70568 40.6576 8.70568C40.6576 8.70569 40.6576 8.70569 40.6576 8.70569C40.6576 8.7057 40.6576 8.7057 40.6576 8.70571C40.6576 8.70571 40.6576 8.70571 40.6576 8.70572C40.6576 8.70572 40.6576 8.70573 40.6576 8.70573C40.6576 8.70573 40.6576 8.70574 40.6576 8.70574C40.6576 8.70575 40.6576 8.70575 40.6576 8.70576C40.6576 8.70576 40.6575 8.70577 40.6575 8.70577C40.6575 8.70577 40.6575 8.70578 40.6575 8.70578C40.6575 8.70579 40.6575 8.70579 40.6575 8.7058C40.6575 8.7058 40.6575 8.70581 40.6575 8.70581C40.6575 8.70582 40.6575 8.70582 40.6575 8.70583C40.6575 8.70583 40.6575 8.70584 40.6575 8.70584C40.6575 8.70585 40.6575 8.70585 40.6575 8.70586C40.6574 8.70587 40.6574 8.70587 40.6574 8.70588C40.6574 8.70588 40.6574 8.70589 40.6574 8.70589C40.6574 8.7059 40.6574 8.7059 40.6574 8.70591C40.6574 8.70592 40.6574 8.70592 40.6574 8.70593C40.6574 8.70593 40.6574 8.70594 40.6574 8.70595C40.6574 8.70595 40.6574 8.70596 40.6573 8.70596C40.6573 8.70597 40.6573 8.70598 40.6573 8.70598C40.6573 8.70599 40.6573 8.70599 40.6573 8.706C40.6573 8.70601 40.6573 8.70601 40.6573 8.70602C40.6573 8.70603 40.6573 8.70603 40.6573 8.70604C40.6573 8.70605 40.6573 8.70605 40.6573 8.70606C40.6572 8.70607 40.6572 8.70607 40.6572 8.70608C40.6572 8.70609 40.6572 8.70609 40.6572 8.7061C40.6572 8.70611 40.6572 8.70611 40.6572 8.70612C40.6572 8.70613 40.6572 8.70614 40.6572 8.70614C40.6572 8.70615 40.6572 8.70616 40.6571 8.70617C40.6571 8.70617 40.6571 8.70618 40.6571 8.70619C40.6571 8.70619 40.6571 8.7062 40.6571 8.70621C40.6571 8.70622 40.6571 8.70622 40.6571 8.70623C40.6571 8.70624 40.6571 8.70625 40.6571 8.70626C40.657 8.70626 40.657 8.70627 40.657 8.70628C40.657 8.70629 40.657 8.7063 40.657 8.7063C40.657 8.70631 40.657 8.70632 40.657 8.70633C40.657 8.70634 40.657 8.70634 40.657 8.70635C40.657 8.70636 40.6569 8.70637 40.6569 8.70638C40.6569 8.70639 40.6569 8.70639 40.6569 8.7064C40.6569 8.70641 40.6569 8.70642 40.6569 8.70643C40.6569 8.70644 40.6569 8.70645 40.6569 8.70646C40.6568 8.70646 40.6568 8.70647 40.6568 8.70648C40.6568 8.70649 40.6568 8.7065 40.6568 8.70651C40.6568 8.70652 40.6568 8.70653 40.6568 8.70654C40.6568 8.70654 40.6568 8.70655 40.6567 8.70656C40.6567 8.70657 40.6567 8.70658 40.6567 8.70659C40.6567 8.7066 40.6567 8.70661 40.6567 8.70662C40.6567 8.70663 40.6567 8.70664 40.6567 8.70665C40.6567 8.70666 40.6566 8.70667 40.6566 8.70668C40.6566 8.70669 40.6566 8.7067 40.6566 8.70671C40.6566 8.70672 40.6566 8.70673 40.6566 8.70674C40.6566 8.70675 40.6566 8.70676 40.6565 8.70677C40.6565 8.70678 40.6565 8.70679 40.6565 8.7068C40.6565 8.70681 40.6565 8.70682 40.6565 8.70683C40.6565 8.70684 40.6565 8.70685 40.6565 8.70686C40.6564 8.70687 40.6564 8.70688 40.6564 8.70689C40.6564 8.7069 40.6564 8.70691 40.6564 8.70692C40.6564 8.70693 40.6564 8.70695 40.6564 8.70696C40.6563 8.70697 40.6563 8.70698 40.6563 8.70699C40.6563 8.707 40.6563 8.70701 40.6563 8.70702C40.6563 8.70703 40.6563 8.70704 40.6563 8.70706C40.6562 8.70707 40.6562 8.70708 40.6562 8.70709C40.6562 8.7071 40.6562 8.70711 40.6562 8.70712C40.6562 8.70714 40.6562 8.70715 40.6562 8.70716C40.6561 8.70717 40.6561 8.70718 40.6561 8.70719C40.6561 8.70721 40.6561 8.70722 40.6561 8.70723C40.6561 8.70724 40.6561 8.70725 40.656 8.70726C40.656 8.70728 40.656 8.70729 40.656 8.7073C40.656 8.70731 40.656 8.70732 40.656 8.70734C40.656 8.70735 40.656 8.70736 40.6559 8.70737C40.6559 8.70739 40.6559 8.7074 40.6559 8.70741C40.6559 8.70742 40.6559 8.70744 40.6559 8.70745C40.6559 8.70746 40.6558 8.70747 40.6558 8.70749C40.6558 8.7075 40.6558 8.70751 40.6558 8.70752C40.6558 8.70754 40.6558 8.70755 40.6557 8.70756C40.6557 8.70758 40.6557 8.70759 40.6557 8.7076C40.6557 8.70762 40.6557 8.70763 40.6557 8.70764C40.6557 8.70765 40.6556 8.70767 40.6556 8.70768C40.6556 8.70769 40.6556 8.70771 40.6556 8.70772C40.6556 8.70773 40.6556 8.70775 40.6556 8.70776C40.6555 8.70778 40.6555 8.70779 40.6555 8.7078C40.6555 8.70782 40.6555 8.70783 40.6555 8.70784C40.6555 8.70786 40.6554 8.70787 40.6554 8.70789C40.6554 8.7079 40.6554 8.70791 40.6554 8.70793C40.6554 8.70794 40.6554 8.70796 40.6553 8.70797C40.6553 8.70798 40.6553 8.708 40.6553 8.70801C40.6553 8.70803 40.6553 8.70804 40.6553 8.70806C40.6552 8.70807 40.6552 8.70808 40.6552 8.7081C40.6552 8.70811 40.6552 8.70813 40.6552 8.70814C40.6552 8.70816 40.6551 8.70817 40.6551 8.70819C40.6551 8.7082 40.6551 8.70822 40.6551 8.70823C40.6551 8.70825 40.6551 8.70826 40.655 8.70828C40.655 8.70829 40.655 8.70831 40.655 8.70832C40.655 8.70834 40.655 8.70835 40.6549 8.70837C40.6549 8.70838 40.6549 8.7084 40.6549 8.70841C40.6549 8.70843 40.6549 8.70844 40.6549 8.70846C40.6548 8.70847 40.6548 8.70849 40.6548 8.70851C40.6548 8.70852 40.6548 8.70854 40.6548 8.70855C40.6547 8.70857 40.6547 8.70858 40.6547 8.7086C40.6547 8.70862 40.6547 8.70863 40.6547 8.70865C40.6546 8.70866 40.6546 8.70868 40.6546 8.7087C40.6546 8.70871 40.6546 8.70873 40.6546 8.70874C40.6546 8.70876 40.6545 8.70878 40.6545 8.70879C40.6545 8.70881 40.6545 8.70883 40.6545 8.70884C40.6545 8.70886 40.6544 8.70888 40.6544 8.70889C40.6544 8.70891 40.6544 8.70893 40.6544 8.70894C40.6544 8.70896 40.6543 8.70898 40.6543 8.70899C40.6543 8.70901 40.6543 8.70903 40.6543 8.70904C40.6543 8.70906 40.6542 8.70908 40.6542 8.70909C40.6542 8.70911 40.6542 8.70913 40.6542 8.70915C40.6541 8.70916 40.6541 8.70918 40.6541 8.7092C40.6541 8.70922 40.6541 8.70923 40.6541 8.70925C40.654 8.70927 40.654 8.70929 40.654 8.7093C40.654 8.70932 40.654 8.70934 40.654 8.70936C40.6539 8.70937 40.6539 8.70939 40.6539 8.70941C40.6539 8.70943 40.6539 8.70944 40.6539 8.70946C40.6538 8.70948 40.6538 8.7095 40.6538 8.70952C40.6538 8.70953 40.6538 8.70955 40.6537 8.70957C40.6537 8.70959 40.6537 8.70961 40.6537 8.70963C40.6537 8.70964 40.6537 8.70966 40.6536 8.70968C40.6536 8.7097 40.6536 8.70972 40.6536 8.70974C40.6536 8.70975 40.6535 8.70977 40.6535 8.70979C40.6535 8.70981 40.6535 8.70983 40.6535 8.70985C40.6534 8.70987 40.6534 8.70989 40.6534 8.7099C40.6534 8.70992 40.6534 8.70994 40.6534 8.70996C40.6533 8.70998 40.6533 8.71 40.6533 8.71002C40.6533 8.71004 40.6533 8.71006 40.6532 8.71008C40.6532 8.7101 40.6532 8.71012 40.6532 8.71013C40.6532 8.71015 40.6531 8.71017 40.6531 8.71019C40.6531 8.71021 40.6531 8.71023 40.6531 8.71025C40.653 8.71027 40.653 8.71029 40.653 8.71031C40.653 8.71033 40.653 8.71035 40.6529 8.71037C40.6529 8.71039 40.6529 8.71041 40.6529 8.71043C40.6529 8.71045 40.6528 8.71047 40.6528 8.71049C40.6528 8.71051 40.6528 8.71053 40.6528 8.71055C40.6527 8.71057 40.6527 8.71059 40.6527 8.71061C40.6527 8.71063 40.6527 8.71065 40.6526 8.71067C40.6526 8.71069 40.6526 8.71071 40.6526 8.71074C40.6526 8.71076 40.6525 8.71078 40.6525 8.7108C40.6525 8.71082 40.6525 8.71084 40.6525 8.71086C40.6524 8.71088 40.6524 8.7109 40.6524 8.71092C40.6524 8.71094 40.6523 8.71096 40.6523 8.71099C40.6523 8.71101 40.6523 8.71103 40.6523 8.71105C40.6522 8.71107 40.6522 8.71109 40.6522 8.71111C40.6522 8.71113 40.6522 8.71116 40.6521 8.71118C40.6521 8.7112 40.6521 8.71122 40.6521 8.71124C40.652 8.71126 40.652 8.71129 40.652 8.71131C40.652 8.71133 40.652 8.71135 40.6519 8.71137C40.6519 8.71139 40.6519 8.71142 40.6519 8.71144C40.6519 8.71146 40.6518 8.71148 40.6518 8.7115C40.6518 8.71153 40.6518 8.71155 40.6517 8.71157C40.6517 8.71159 40.6517 8.71162 40.6517 8.71164C40.6517 8.71166 40.6516 8.71168 40.6516 8.71171C40.6516 8.71173 40.6516 8.71175 40.6515 8.71177C40.6515 8.7118 40.6515 8.71182 40.6515 8.71184C40.6514 8.71186 40.6514 8.71189 40.6514 8.71191C40.6514 8.71193 40.6514 8.71195 40.6513 8.71198C40.6513 8.712 40.6513 8.71202 40.6513 8.71205C40.6512 8.71207 40.6512 8.71209 40.6512 8.71212C40.6512 8.71214 40.6512 8.71216 40.6511 8.71219C40.6511 8.71221 40.6511 8.71223 40.6511 8.71226C40.651 8.71228 40.651 8.7123 40.651 8.71233C40.651 8.71235 40.6509 8.71237 40.6509 8.7124C40.6509 8.71242 40.6509 8.71244 40.6508 8.71247C40.6508 8.71249 40.6508 8.71252 40.6508 8.71254C40.6507 8.71256 40.6507 8.71259 40.6507 8.71261C40.6507 8.71264 40.6507 8.71266 40.6506 8.71268C40.6506 8.71271 40.6506 8.71273 40.6506 8.71276C40.6505 8.71278 40.6505 8.71281 40.6505 8.71283C40.6505 8.71285 40.6504 8.71288 40.6504 8.7129C40.6504 8.71293 40.6504 8.71295 40.6503 8.71298C40.6503 8.713 40.6503 8.71303 40.6503 8.71305C40.6502 8.71308 40.6502 8.7131 40.6502 8.71313C40.6502 8.71315 40.6501 8.71318 40.6501 8.7132C40.6501 8.71323 40.6501 8.71325 40.65 8.71328C40.65 8.7133 40.65 8.71333 40.65 8.71335C40.6499 8.71338 40.6499 8.7134 40.6499 8.71343C40.6499 8.71345 40.6498 8.71348 40.6498 8.7135C40.6498 8.71353 40.6498 8.71356 40.6497 8.71358C40.6497 8.71361 40.6497 8.71363 40.6497 8.71366C40.6496 8.71368 40.6496 8.71371 40.6496 8.71374C40.6496 8.71376 40.6495 8.71379 40.6495 8.71381C40.6495 8.71384 40.6494 8.71387 40.6494 8.71389C40.6494 8.71392 40.6494 8.71394 40.6493 8.71397C40.6493 8.714 40.6493 8.71402 40.6493 8.71405C40.6492 8.71408 40.6492 8.7141 40.6492 8.71413C40.6492 8.71415 40.6491 8.71418 40.6491 8.71421C40.6491 8.71423 40.6491 8.71426 40.649 8.71429C40.649 8.71431 40.649 8.71434 40.6489 8.71437C40.6489 8.71439 40.6489 8.71442 40.6489 8.71445C40.6488 8.71448 40.6488 8.7145 40.6488 8.71453C40.6488 8.71456 40.6487 8.71458 40.6487 8.71461C40.6487 8.71464 40.6486 8.71467 40.6486 8.71469C40.6486 8.71472 40.6486 8.71475 40.6485 8.71478C40.6485 8.7148 40.6485 8.71483 40.6485 8.71486C40.6484 8.71489 40.6484 8.71491 40.6484 8.71494C40.6483 8.71497 40.6483 8.715 40.6483 8.71502C40.6483 8.71505 40.6482 8.71508 40.6482 8.71511C40.6482 8.71514 40.6481 8.71516 40.6481 8.71519C40.6481 8.71522 40.6481 8.71525 40.648 8.71528C40.648 8.7153 40.648 8.71533 40.648 8.71536C40.6479 8.71539 40.6479 8.71542 40.6479 8.71545C40.6478 8.71547 40.6478 8.7155 40.6478 8.71553C40.6478 8.71556 40.6477 8.71559 40.6477 8.71562C40.6477 8.71565 40.6476 8.71568 40.6476 8.7157C40.6476 8.71573 40.6476 8.71576 40.6475 8.71579C40.6475 8.71582 40.6475 8.71585 40.6474 8.71588C40.6474 8.71591 40.6474 8.71594 40.6473 8.71597C40.6473 8.71599 40.6473 8.71602 40.6473 8.71605C40.6472 8.71608 40.6472 8.71611 40.6472 8.71614C40.6471 8.71617 40.6471 8.7162 40.6471 8.71623C40.6471 8.71626 40.647 8.71629 40.647 8.71632C40.647 8.71635 40.6469 8.71638 40.6469 8.71641C40.6469 8.71644 40.6468 8.71647 40.6468 8.7165C40.6468 8.71653 40.6468 8.71656 40.6467 8.71659C40.6467 8.71662 40.6467 8.71665 40.6466 8.71668C40.6466 8.71671 40.6466 8.71674 40.6465 8.71677C40.6465 8.7168 40.6465 8.71683 40.6465 8.71686C40.6464 8.71689 40.6464 8.71692 40.6464 8.71695C40.6463 8.71698 40.6463 8.71701 40.6463 8.71704C40.6462 8.71707 40.6462 8.7171 40.6462 8.71713C40.6461 8.71716 40.6461 8.7172 40.6461 8.71723C40.6461 8.71726 40.646 8.71729 40.646 8.71732C40.646 8.71735 40.6459 8.71738 40.6459 8.71741C40.6459 8.71744 40.6458 8.71747 40.6458 8.71751C40.6458 8.71754 40.6457 8.71757 40.6457 8.7176C40.6457 8.71763 40.6457 8.71766 40.6456 8.71769C40.6456 8.71773 40.6456 8.71776 40.6455 8.71779C40.6455 8.71782 40.6455 8.71785 40.6454 8.71788C40.6454 8.71792 40.6454 8.71795 40.6453 8.71798C40.6453 8.71801 40.6453 8.71804 40.6452 8.71807C40.6452 8.71811 40.6452 8.71814 40.6451 8.71817C40.6451 8.7182 40.6451 8.71824 40.645 8.71827C40.645 8.7183 40.645 8.71833 40.6449 8.71836C40.6449 8.7184 40.6449 8.71843 40.6449 8.71846C40.6448 8.71849 40.6448 8.71853 40.6448 8.71856C40.6447 8.71859 40.6447 8.71862 40.6447 8.71866C40.6446 8.71869 40.6446 8.71872 40.6446 8.71876C40.6445 8.71879 40.6445 8.71882 40.6445 8.71885C40.6444 8.71889 40.6444 8.71892 40.6444 8.71895C40.6443 8.71899 40.6443 8.71902 40.6443 8.71905C40.6442 8.71909 40.6442 8.71912 40.6442 8.71915C40.6441 8.71919 40.6441 8.71922 40.6441 8.71925C40.644 8.71929 40.644 8.71932 40.644 8.71935C40.6439 8.71939 40.6439 8.71942 40.6439 8.71945C40.6438 8.71949 40.6438 8.71952 40.6438 8.71956C40.6437 8.71959 40.6437 8.71962 40.6437 8.71966C40.6436 8.71969 40.6436 8.71972 40.6436 8.71976C40.6435 8.71979 40.6435 8.71983 40.6435 8.71986C40.6434 8.7199 40.6434 8.71993 40.6433 8.71996C40.6433 8.72 40.6433 8.72003 40.6432 8.72007C40.6432 8.7201 40.6432 8.72014 40.6431 8.72017C40.6431 8.72021 40.6431 8.72024 40.643 8.72027C40.643 8.72031 40.643 8.72034 40.6429 8.72038C40.6429 8.72041 40.6429 8.72045 40.6428 8.72048C40.6428 8.72052 40.6428 8.72055 40.6427 8.72059C40.6427 8.72062 40.6427 8.72066 40.6426 8.72069C40.6426 8.72073 40.6425 8.72076 40.6425 8.7208C40.6425 8.72083 40.6424 8.72087 40.6424 8.72091C40.6424 8.72094 40.6423 8.72098 40.6423 8.72101C40.6423 8.72105 40.6422 8.72108 40.6422 8.72112C40.6422 8.72115 40.6421 8.72119 40.6421 8.72123C40.6421 8.72126 40.642 8.7213 40.642 8.72133C40.6419 8.72137 40.6419 8.7214 40.6419 8.72144C40.6418 8.72148 40.6418 8.72151 40.6418 8.72155C40.6417 8.72158 40.6417 8.72162 40.6417 8.72166C40.6416 8.72169 40.6416 8.72173 40.6415 8.72177C40.6415 8.7218 40.6415 8.72184 40.6414 8.72188C40.6414 8.72191 40.6414 8.72195 40.6413 8.72199C40.6413 8.72202 40.6413 8.72206 40.6412 8.7221C40.6412 8.72213 40.6411 8.72217 40.6411 8.72221C40.6411 8.72224 40.641 8.72228 40.641 8.72232C40.641 8.72235 40.6409 8.72239 40.6409 8.72243C40.6408 8.72246 40.6408 8.7225 40.6408 8.72254C40.6407 8.72258 40.6407 8.72261 40.6407 8.72265C40.6406 8.72269 40.6406 8.72273 40.6405 8.72276C40.6405 8.7228 40.6405 8.72284 40.6404 8.72288C40.6404 8.72291 40.6404 8.72295 40.6403 8.72299C40.6403 8.72303 40.6402 8.72306 40.6402 8.7231C40.6402 8.72314 40.6401 8.72318 40.6401 8.72322C40.6401 8.72325 40.64 8.72329 40.64 8.72333C40.6399 8.72337 40.6399 8.72341 40.6399 8.72344C40.6398 8.72348 40.6398 8.72352 40.6398 8.72356C40.6397 8.7236 40.6397 8.72364 40.6396 8.72367C40.6396 8.72371 40.6396 8.72375 40.6395 8.72379C40.6395 8.72383 40.6394 8.72387 40.6394 8.72391C40.6394 8.72394 40.6393 8.72398 40.6393 8.72402C40.6393 8.72406 40.6392 8.7241 40.6392 8.72414C40.6391 8.72418 40.6391 8.72422 40.6391 8.72426C40.639 8.72429 40.639 8.72433 40.6389 8.72437C40.6389 8.72441 40.6389 8.72445 40.6388 8.72449C40.6388 8.72453 40.6387 8.72457 40.6387 8.72461C40.6387 8.72465 40.6386 8.72469 40.6386 8.72473C40.6385 8.72477 40.6385 8.72481 40.6385 8.72485C40.6384 8.72489 40.6384 8.72493 40.6383 8.72497C40.6383 8.72501 40.6383 8.72505 40.6382 8.72509C40.6382 8.72513 40.6381 8.72517 40.6381 8.72521C40.6381 8.72525 40.638 8.72529 40.638 8.72533C40.6379 8.72537 40.6379 8.72541 40.6379 8.72545C40.6378 8.72549 40.6378 8.72553 40.6377 8.72557C40.6377 8.72561 40.6377 8.72565 40.6376 8.72569C40.6376 8.72573 40.6375 8.72577 40.6375 8.72581C40.6375 8.72585 40.6374 8.72589 40.6374 8.72593C40.6373 8.72597 40.6373 8.72601 40.6373 8.72605C40.6372 8.7261 40.6372 8.72614 40.6371 8.72618C40.6371 8.72622 40.6371 8.72626 40.637 8.7263C40.637 8.72634 40.6369 8.72638 40.6369 8.72642C40.6368 8.72647 40.6368 8.72651 40.6368 8.72655C40.6367 8.72659 40.6367 8.72663 40.6366 8.72667C40.6366 8.72671 40.6366 8.72676 40.6365 8.7268C40.6365 8.72684 40.6364 8.72688 40.6364 8.72692C40.6363 8.72696 40.6363 8.72701 40.6363 8.72705C40.6362 8.72709 40.6362 8.72713 40.6361 8.72717C40.6361 8.72722 40.6361 8.72726 40.636 8.7273C40.636 8.72734 40.6359 8.72738 40.6359 8.72743C40.6358 8.72747 40.6358 8.72751 40.6358 8.72755C40.6357 8.7276 40.6357 8.72764 40.6356 8.72768C40.6356 8.72772 40.6355 8.72777 40.6355 8.72781C40.6355 8.72785 40.6354 8.72789 40.6354 8.72794C40.6353 8.72798 40.6353 8.72802 40.6352 8.72806C40.6352 8.72811 40.6352 8.72815 40.6351 8.72819C40.6351 8.72824 40.635 8.72828 40.635 8.72832C40.6349 8.72837 40.6349 8.72841 40.6349 8.72845C40.6348 8.7285 40.6348 8.72854 40.6347 8.72858C40.6347 8.72863 40.6346 8.72867 40.6346 8.72871C40.6346 8.72876 40.6345 8.7288 40.6345 8.72884C40.6344 8.72889 40.6344 8.72893 40.6343 8.72897C40.6343 8.72902 40.6343 8.72906 40.6342 8.7291C40.6342 8.72915 40.6341 8.72919 40.6341 8.72924C40.634 8.72928 40.634 8.72932 40.6339 8.72937C40.6339 8.72941 40.6339 8.72946 40.6338 8.7295C40.6338 8.72954 40.6337 8.72959 40.6337 8.72963C40.6336 8.72968 40.6336 8.72972 40.6335 8.72977C40.6335 8.72981 40.6335 8.72986 40.6334 8.7299C40.6334 8.72994 40.6333 8.72999 40.6333 8.73003C40.6332 8.73008 40.6332 8.73012 40.6331 8.73017C40.6331 8.73021 40.6331 8.73026 40.633 8.7303C40.633 8.73035 40.6329 8.73039 40.6329 8.73044C40.6328 8.73048 40.6328 8.73053 40.6327 8.73057C40.6327 8.73062 40.6326 8.73066 40.6326 8.73071C40.6326 8.73075 40.6325 8.7308 40.6325 8.73084C40.6324 8.73089 40.6324 8.73094 40.6323 8.73098C40.6323 8.73103 40.6322 8.73107 40.6322 8.73112C40.6321 8.73116 40.6321 8.73121 40.6321 8.73126C40.632 8.7313 40.632 8.73135 40.6319 8.73139C40.6319 8.73144 40.6318 8.73148 40.6318 8.73153C40.6317 8.73158 40.6317 8.73162 40.6316 8.73167C40.6316 8.73171 40.6316 8.73176 40.6315 8.73181C40.6315 8.73185 40.6314 8.7319 40.6314 8.73195C40.6313 8.73199 40.6313 8.73204 40.6312 8.73209C40.6312 8.73213 40.6311 8.73218 40.6311 8.73223C40.631 8.73227 40.631 8.73232 40.6309 8.73237C40.6309 8.73241 40.6309 8.73246 40.6308 8.73251C40.6308 8.73255 40.6307 8.7326 40.6307 8.73265C40.6306 8.73269 40.6306 8.73274 40.6305 8.73279C40.6305 8.73283 40.6304 8.73288 40.6304 8.73293C40.6303 8.73298 40.6303 8.73302 40.6302 8.73307C40.6302 8.73312 40.6301 8.73317 40.6301 8.73321C40.6301 8.73326 40.63 8.73331 40.63 8.73336C40.6299 8.7334 40.6299 8.73345 40.6298 8.7335C40.6298 8.73355 40.6297 8.73359 40.6297 8.73364C40.6296 8.73369 40.6296 8.73374 40.6295 8.73379C40.6295 8.73383 40.6294 8.73388 40.6294 8.73393C40.6293 8.73398 40.6293 8.73403 40.6292 8.73407C40.6292 8.73412 40.6291 8.73417 40.6291 8.73422C40.629 8.73427 40.629 8.73432 40.6289 8.73436C40.6289 8.73441 40.6289 8.73446 40.6288 8.73451C40.6288 8.73456 40.6287 8.73461 40.6287 8.73466C40.6286 8.73471 40.6286 8.73475 40.6285 8.7348C40.6285 8.73485 40.6284 8.7349 40.6284 8.73495C40.6283 8.735 40.6283 8.73505 40.6282 8.7351C40.6282 8.73515 40.6281 8.73519 40.6281 8.73524C40.628 8.73529 40.628 8.73534 40.6279 8.73539C40.6279 8.73544 40.6278 8.73549 40.6278 8.73554C40.6277 8.73559 40.6277 8.73564 40.6276 8.73569C40.6276 8.73574 40.6275 8.73579 40.6275 8.73584C40.6274 8.73589 40.6274 8.73594 40.6273 8.73599C40.6273 8.73604 40.6272 8.73609 40.6272 8.73614C40.6271 8.73619 40.6271 8.73624 40.627 8.73629C40.627 8.73634 40.6269 8.73639 40.6269 8.73644C40.6268 8.73649 40.6268 8.73654 40.6267 8.73659C40.6267 8.73664 40.6266 8.73669 40.6266 8.73674C40.6265 8.73679 40.6265 8.73684 40.6264 8.73689C40.6264 8.73694 40.6263 8.73699 40.6263 8.73704C40.6262 8.73709 40.6262 8.73714 40.6261 8.73719C40.6261 8.73724 40.626 8.73729 40.626 8.73735C40.6259 8.7374 40.6259 8.73745 40.6258 8.7375C40.6258 8.73755 40.6257 8.7376 40.6257 8.73765C40.6256 8.7377 40.6256 8.73775 40.6255 8.73781C40.6255 8.73786 40.6254 8.73791 40.6254 8.73796C40.6253 8.73801 40.6253 8.73806 40.6252 8.73811C40.6251 8.73817 40.6251 8.73822 40.625 8.73827C40.625 8.73832 40.6249 8.73837 40.6249 8.73842C40.6248 8.73848 40.6248 8.73853 40.6247 8.73858C40.6247 8.73863 40.6246 8.73868 40.6246 8.73874C40.6245 8.73879 40.6245 8.73884 40.6244 8.73889C40.6244 8.73894 40.6243 8.739 40.6243 8.73905C40.6242 8.7391 40.6242 8.73915 40.6241 8.7392C40.6241 8.73926 40.624 8.73931 40.624 8.73936C40.6239 8.73941 40.6238 8.73947 40.6238 8.73952C40.6237 8.73957 40.6237 8.73962 40.6236 8.73968C40.6236 8.73973 40.6235 8.73978 40.6235 8.73984C40.6234 8.73989 40.6234 8.73994 40.6233 8.73999C40.6233 8.74005 40.6232 8.7401 40.6232 8.74015C40.6231 8.74021 40.6231 8.74026 40.623 8.74031C40.6229 8.74037 40.6229 8.74042 40.6228 8.74047C40.6228 8.74053 40.6227 8.74058 40.6227 8.74063C40.6226 8.74069 40.6226 8.74074 40.6225 8.74079C40.6225 8.74085 40.6224 8.7409 40.6224 8.74096C40.6223 8.74101 40.6223 8.74106 40.6222 8.74112C40.6221 8.74117 40.6221 8.74122 40.622 8.74128C40.622 8.74133 40.6219 8.74139 40.6219 8.74144C40.6218 8.74149 40.6218 8.74155 40.6217 8.7416C40.6217 8.74166 40.6216 8.74171 40.6215 8.74177C40.6215 8.74182 40.6214 8.74187 40.6214 8.74193C40.6213 8.74198 40.6213 8.74204 40.6212 8.74209C40.6212 8.74215 40.6211 8.7422 40.6211 8.74226C40.621 8.74231 40.6209 8.74237 40.6209 8.74242C40.6208 8.74247 40.6208 8.74253 40.6207 8.74258C40.6207 8.74264 40.6206 8.74269 40.6206 8.74275C40.6205 8.7428 40.6205 8.74286 40.6204 8.74292C40.6203 8.74297 40.6203 8.74303 40.6202 8.74308C40.6202 8.74314 40.6201 8.74319 40.6201 8.74325C40.62 8.7433 40.62 8.74336 40.6199 8.74341C40.6198 8.74347 40.6198 8.74352 40.6197 8.74358C40.6197 8.74364 40.6196 8.74369 40.6196 8.74375C40.6195 8.7438 40.6195 8.74386 40.6194 8.74391C40.6193 8.74397 40.6193 8.74403 40.6192 8.74408C40.6192 8.74414 40.6191 8.74419 40.6191 8.74425C40.619 8.74431 40.6189 8.74436 40.6189 8.74442C40.6188 8.74448 40.6188 8.74453 40.6187 8.74459C40.6187 8.74464 40.6186 8.7447 40.6186 8.74476C40.6185 8.74481 40.6184 8.74487 40.6184 8.74493C40.6183 8.74498 40.6183 8.74504 40.6182 8.7451C40.6182 8.74515 40.6181 8.74521 40.618 8.74527C40.618 8.74533 40.6179 8.74538 40.6179 8.74544C40.6178 8.7455 40.6178 8.74555 40.6177 8.74561C40.6176 8.74567 40.6176 8.74572 40.6175 8.74578C40.6175 8.74584 40.6174 8.7459 40.6174 8.74595C40.6173 8.74601 40.6172 8.74607 40.6172 8.74613C40.6171 8.74618 40.6171 8.74624 40.617 8.7463C40.617 8.74636 40.6169 8.74641 40.6168 8.74647C40.6168 8.74653 40.6167 8.74659 40.6167 8.74665C40.6166 8.7467 40.6166 8.74676 40.6165 8.74682C40.6164 8.74688 40.6164 8.74694 40.6163 8.74699C40.6163 8.74705 40.6162 8.74711 40.6161 8.74717C40.6161 8.74723 40.616 8.74728 40.616 8.74734C40.6159 8.7474 40.6159 8.74746 40.6158 8.74752C40.6157 8.74758 40.6157 8.74763 40.6156 8.74769C40.6156 8.74775 40.6155 8.74781 40.6154 8.74787C40.6154 8.74793 40.6153 8.74799 40.6153 8.74805C40.6152 8.7481 40.6151 8.74816 40.6151 8.74822C40.615 8.74828 40.615 8.74834 40.6149 8.7484C40.6149 8.74846 40.6148 8.74852 40.6147 8.74858C40.6147 8.74864 40.6146 8.7487 40.6146 8.74875C40.6145 8.74881 40.6144 8.74887 40.6144 8.74893C40.6143 8.74899 40.6143 8.74905 40.6142 8.74911C40.6141 8.74917 40.6141 8.74923 40.614 8.74929C40.614 8.74935 40.6139 8.74941 40.6138 8.74947C40.6138 8.74953 40.6137 8.74959 40.6137 8.74965C40.6136 8.74971 40.6135 8.74977 40.6135 8.74983C40.6134 8.74989 40.6134 8.74995 40.6133 8.75001C40.6132 8.75007 40.6132 8.75013 40.6131 8.75019C40.6131 8.75025 40.613 8.75031 40.6129 8.75037C40.6129 8.75043 40.6128 8.75049 40.6128 8.75055C40.6127 8.75061 40.6126 8.75067 40.6126 8.75073C40.6125 8.7508 40.6125 8.75086 40.6124 8.75092C40.6123 8.75098 40.6123 8.75104 40.6122 8.7511C40.6122 8.75116 40.6121 8.75122 40.612 8.75128C40.612 8.75134 40.6119 8.7514 40.6118 8.75147C40.6118 8.75153 40.6117 8.75159 40.6117 8.75165C40.6116 8.75171 40.6115 8.75177 40.6115 8.75183C40.6114 8.75189 40.6114 8.75196 40.6113 8.75202C40.6112 8.75208 40.6112 8.75214 40.6111 8.7522C40.611 8.75226 40.611 8.75233 40.6109 8.75239C40.6109 8.75245 40.6108 8.75251 40.6107 8.75257C40.6107 8.75263 40.6106 8.7527 40.6106 8.75276C40.6105 8.75282 40.6104 8.75288 40.6104 8.75294C40.6103 8.75301 40.6102 8.75307 40.6102 8.75313C40.6101 8.75319 40.6101 8.75326 40.61 8.75332C40.6099 8.75338 40.6099 8.75344 40.6098 8.75351L42.024 10.1677ZM42.3649 9.41261V7.49261H40.3649V9.41261H42.3649ZM41.3649 6.49261C40.8465 6.49261 40.3207 6.6424 39.9023 7.0376L41.2755 8.49163C41.2719 8.49511 41.2671 8.49877 41.2621 8.50176C41.2573 8.50469 41.2552 8.5052 41.2577 8.50432C41.263 8.50248 41.2944 8.49261 41.3649 8.49261V6.49261ZM39.9132 7.02746C39.4382 7.46291 39.3009 8.05886 39.3009 8.58861H41.3009C41.3009 8.48407 41.3148 8.43864 41.3169 8.43256C41.3176 8.43073 41.3148 8.43913 41.3055 8.4536C41.296 8.46849 41.2824 8.48552 41.2646 8.50177L39.9132 7.02746ZM39.3009 8.58861C39.3009 9.00403 39.3659 9.49191 39.644 9.90092C39.9691 10.379 40.4713 10.5886 40.9809 10.5886V8.58861C40.9904 8.58861 41.0471 8.59072 41.1236 8.62819C41.2045 8.66788 41.2634 8.72569 41.2978 8.7763C41.3278 8.82034 41.3265 8.8398 41.3187 8.80505C41.3108 8.77046 41.3009 8.70178 41.3009 8.58861H39.3009ZM47.356 10.4526L47.8271 9.57054L46.356 8.78483V10.4526H47.356ZM47.356 10.8286V11.8286H48.356V10.8286H47.356ZM44.748 10.8286H43.748V11.8286H44.748V10.8286ZM44.748 1.78061H45.748V1.21442L45.2625 0.92312L44.748 1.78061ZM44.268 1.49261H43.268V2.0588L43.7535 2.35011L44.268 1.49261ZM44.268 0.748614L44.1141 -0.239472L43.268 -0.107681V0.748614H44.268ZM46.836 0.348613V-0.651387H46.7586L46.6821 -0.639472L46.836 0.348613ZM47.356 0.348613H48.356V-0.651387H47.356V0.348613ZM47.356 4.65261H46.356V7.28281L48.1034 5.31698L47.356 4.65261ZM48.004 4.13261L48.4897 5.00677L48.4897 5.00677L48.004 4.13261ZM48.492 3.94061L48.243 2.9721L48.2361 2.97391L48.492 3.94061ZM51.02 4.77261L50.1936 5.33573L50.1971 5.34069L51.02 4.77261ZM51.476 8.66861L52.4425 8.92552L52.4433 8.92251L51.476 8.66861ZM50.98 9.78861L50.1501 9.23078L50.1501 9.23078L50.98 9.78861ZM50.132 10.5566L50.6012 11.4397L50.6061 11.4371L50.132 10.5566ZM48.596 5.66061L47.7613 6.21121L47.7681 6.22153L47.7751 6.23168L48.596 5.66061ZM47.356 5.50061L46.7768 4.68543L46.356 4.98442V5.50061H47.356ZM47.356 9.66061H46.356V10.4289L47.0984 10.6268L47.356 9.66061ZM47.58 9.70861L47.428 10.697L47.4655 10.7028L47.5033 10.7057L47.58 9.70861ZM48.956 9.82861C48.5026 9.82861 48.1345 9.73469 47.8271 9.57054L46.8849 11.3347C47.5162 11.6719 48.2148 11.8286 48.956 11.8286V9.82861ZM46.356 10.4526V10.8286H48.356V10.4526H46.356ZM47.356 9.82861H44.748V11.8286H47.356V9.82861ZM45.748 10.8286V1.78061H43.748V10.8286H45.748ZM45.2625 0.92312L44.7825 0.63512L43.7535 2.35011L44.2335 2.63811L45.2625 0.92312ZM45.268 1.49261V0.748614H43.268V1.49261H45.268ZM44.4219 1.7367L46.9899 1.3367L46.6821 -0.639472L44.1141 -0.239472L44.4219 1.7367ZM46.836 1.34861H47.356V-0.651387H46.836V1.34861ZM46.356 0.348613V4.65261H48.356V0.348613H46.356ZM48.1034 5.31698C48.1558 5.25804 48.2145 5.20084 48.2802 5.14552L46.9919 3.6157C46.8549 3.73105 46.7269 3.85519 46.6086 3.98825L48.1034 5.31698ZM48.2802 5.14552C48.3221 5.11018 48.3889 5.06273 48.4897 5.00677L47.5184 3.25846C47.3311 3.36249 47.1526 3.48038 46.9919 3.6157L48.2802 5.14552ZM48.4897 5.00677C48.552 4.97213 48.6359 4.93698 48.7479 4.90732L48.2361 2.97391C47.9855 3.04024 47.744 3.13309 47.5184 3.25846L48.4897 5.00677ZM48.7411 4.90911C48.8402 4.88361 48.9534 4.86861 49.084 4.86861V2.86861C48.7986 2.86861 48.5172 2.90162 48.243 2.97212L48.7411 4.90911ZM49.084 4.86861C49.7114 4.86861 50.0093 5.06514 50.1937 5.33572L51.8464 4.2095C51.2095 3.27475 50.2167 2.86861 49.084 2.86861V4.86861ZM50.1971 5.34069C50.4562 5.71606 50.644 6.32463 50.644 7.27661H52.644C52.644 6.09526 52.4159 5.0345 51.843 4.20454L50.1971 5.34069ZM50.644 7.27661C50.644 7.7037 50.5963 8.08131 50.5088 8.41472L52.4433 8.92251C52.5797 8.40259 52.644 7.85219 52.644 7.27661H50.644ZM50.5096 8.41171C50.4229 8.73779 50.3004 9.00721 50.1501 9.23078L51.81 10.3465C52.0971 9.91935 52.3052 9.4421 52.4425 8.92551L50.5096 8.41171ZM50.1501 9.23078C50.0225 9.42063 49.8622 9.56616 49.6579 9.67614L50.6061 11.4371C51.0952 11.1737 51.5003 10.8073 51.81 10.3464L50.1501 9.23078ZM49.6629 9.6735C49.4858 9.76757 49.2591 9.82861 48.956 9.82861V11.8286C49.5383 11.8286 50.0956 11.7083 50.6012 11.4397L49.6629 9.6735ZM47.78 10.7166C48.4372 10.7166 49.038 10.4398 49.4211 9.85375C49.7559 9.34154 49.852 8.70035 49.852 8.07661H47.852C47.852 8.2986 47.8336 8.46349 47.808 8.58122C47.7822 8.69954 47.7537 8.74921 47.747 8.75947C47.7447 8.76301 47.7602 8.74086 47.7947 8.72326C47.8255 8.70756 47.8303 8.71661 47.78 8.71661V10.7166ZM49.852 8.07661V6.71661H47.852V8.07661H49.852ZM49.852 6.71661C49.852 6.15574 49.7513 5.57024 49.4169 5.08955L47.7751 6.23168C47.7821 6.24165 47.852 6.36015 47.852 6.71661H49.852ZM49.4308 5.11002C49.1126 4.62758 48.608 4.28461 47.956 4.28461V6.28461C47.9407 6.28461 47.9169 6.28268 47.8877 6.27498C47.8582 6.26719 47.8301 6.25529 47.8055 6.24082C47.7552 6.21128 47.745 6.18662 47.7613 6.21121L49.4308 5.11002ZM47.956 4.28461C47.5028 4.28461 47.1045 4.45264 46.7768 4.68543L47.9352 6.31579C47.9747 6.28776 47.9953 6.28003 47.9968 6.2795C47.9973 6.2793 47.9935 6.28069 47.9858 6.28209C47.978 6.2835 47.9679 6.28461 47.956 6.28461V4.28461ZM46.356 5.50061V9.66061H48.356V5.50061H46.356ZM47.0984 10.6268C47.2072 10.6559 47.3174 10.68 47.428 10.697L47.7321 8.72024C47.704 8.71592 47.6649 8.70804 47.6137 8.69438L47.0984 10.6268ZM47.5033 10.7057C47.596 10.7128 47.6884 10.7166 47.78 10.7166V8.71661C47.7437 8.71661 47.7027 8.7151 47.6567 8.71156L47.5033 10.7057ZM56.0692 6.69261V7.69261H57.0692V6.69261H56.0692ZM55.1892 4.91661L55.655 5.80153L55.6728 5.79214L55.6903 5.78204L55.1892 4.91661ZM54.9652 5.18061L55.8908 5.55925L55.8937 5.55215L55.8965 5.54501L54.9652 5.18061ZM54.8692 5.54861L53.8769 5.42458L53.8746 5.44324L53.873 5.46198L54.8692 5.54861ZM54.8532 6.69261H53.8532V7.69261H54.8532V6.69261ZM53.8692 10.7246L53.4862 11.6484L53.4902 11.65L53.8692 10.7246ZM52.8292 9.96461L52.037 10.575L52.0434 10.583L52.8292 9.96461ZM52.2772 8.86861L51.3157 9.14334L51.3167 9.14667L52.2772 8.86861ZM53.0132 4.78861L52.303 4.0846L52.303 4.0846L53.0132 4.78861ZM57.8212 4.61261L57.0831 5.28727L57.0867 5.29122L57.8212 4.61261ZM58.5012 7.87661V8.87661H59.5012V7.87661H58.5012ZM54.8452 7.87661V6.87661H53.8452V7.87661H54.8452ZM54.9412 8.80461L53.9876 9.10574L53.9912 9.11707L53.9951 9.1283L54.9412 8.80461ZM55.2372 9.25261L55.8372 8.45261L55.8372 8.45261L55.2372 9.25261ZM55.6292 9.44461L55.3959 10.417L55.3959 10.417L55.6292 9.44461ZM56.7172 9.42061L56.5028 8.44386L56.4977 8.445L56.7172 9.42061ZM57.3732 9.19661L56.961 8.28547L56.9528 8.2893L57.3732 9.19661ZM57.9332 8.83661L58.7967 8.33221L58.1672 7.25467L57.2528 8.10382L57.9332 8.83661ZM58.4052 9.64461L59.2564 10.1695L59.5715 9.65855L59.2687 9.14021L58.4052 9.64461ZM57.5332 10.4526L58.0241 11.3239L58.0281 11.3216L57.5332 10.4526ZM57.0692 6.69261C57.0692 6.01257 57.0372 5.42531 56.9364 5.01439L54.994 5.49083C55.0319 5.64525 55.0692 6.01799 55.0692 6.69261H57.0692ZM56.9364 5.01439C56.8813 4.78945 56.7774 4.50508 56.5584 4.26333C56.3095 3.98848 55.9638 3.82861 55.5812 3.82861V5.82861C55.4984 5.82861 55.4003 5.81216 55.3005 5.76732C55.2012 5.72271 55.1269 5.66203 55.076 5.60589C54.9851 5.50548 54.9799 5.43311 54.994 5.49083L56.9364 5.01439ZM55.5812 3.82861C55.3071 3.82861 54.9876 3.87785 54.6882 4.05119L55.6903 5.78204C55.6415 5.81028 55.602 5.8219 55.5823 5.82633C55.5634 5.83056 55.5611 5.82861 55.5812 5.82861V3.82861ZM54.7235 4.03169C54.3778 4.21361 54.1556 4.50545 54.034 4.81622L55.8965 5.54501C55.8858 5.57222 55.8632 5.61839 55.8197 5.66959C55.7749 5.72238 55.7184 5.76812 55.655 5.80153L54.7235 4.03169ZM54.0397 4.80198C53.9577 5.0023 53.9037 5.21069 53.8769 5.42458L55.8615 5.67265C55.8668 5.63054 55.8767 5.59359 55.8908 5.55925L54.0397 4.80198ZM53.873 5.46198C53.8588 5.62469 53.8532 5.81374 53.8532 6.02061H55.8532C55.8532 5.84349 55.8583 5.71787 55.8655 5.63524L53.873 5.46198ZM53.8532 6.02061V6.69261H55.8532V6.02061H53.8532ZM54.8532 7.69261H56.0692V5.69261H54.8532V7.69261ZM55.4292 9.99661C54.9307 9.99661 54.5448 9.9207 54.2483 9.79924L53.4902 11.65C54.079 11.8912 54.7331 11.9966 55.4292 11.9966V9.99661ZM54.2522 9.80087C53.9501 9.67559 53.7508 9.51863 53.6151 9.34622L52.0434 10.583C52.4197 11.0613 52.9137 11.411 53.4862 11.6484L54.2522 9.80087ZM53.6214 9.35428C53.4493 9.13092 53.3213 8.87893 53.2378 8.59056L51.3167 9.14667C51.4679 9.66897 51.7078 10.1476 52.0371 10.575L53.6214 9.35428ZM53.2387 8.59389C53.1509 8.28648 53.1012 7.92471 53.1012 7.50061H51.1012C51.1012 8.07918 51.1689 8.62941 51.3157 9.14333L53.2387 8.59389ZM53.1012 7.50061C53.1012 6.46674 53.3627 5.85646 53.7234 5.49263L52.303 4.0846C51.4477 4.94743 51.1012 6.14515 51.1012 7.50061H53.1012ZM53.7234 5.49263C54.0969 5.11591 54.6639 4.86861 55.5652 4.86861V2.86861C54.2799 2.86861 53.1456 3.23465 52.303 4.0846L53.7234 5.49263ZM55.5652 4.86861C56.491 4.86861 56.9036 5.0909 57.0831 5.28726L58.5594 3.93797C57.8322 3.14233 56.7408 2.86861 55.5652 2.86861V4.86861ZM57.0867 5.29122C57.289 5.51014 57.5012 5.99595 57.5012 6.98861H59.5012C59.5012 5.79461 59.2601 4.69642 58.5557 3.934L57.0867 5.29122ZM57.5012 6.98861V7.87661H59.5012V6.98861H57.5012ZM58.5012 6.87661H54.8452V8.87661H58.5012V6.87661ZM53.8452 7.87661V8.02861H55.8452V7.87661H53.8452ZM53.8452 8.02861C53.8452 8.40127 53.8819 8.77098 53.9876 9.10574L55.8948 8.50348C55.8725 8.43291 55.8452 8.28529 55.8452 8.02861H53.8452ZM53.9951 9.1283C54.1078 9.45778 54.3025 9.80157 54.6372 10.0526L55.8372 8.45261C55.8753 8.48113 55.8951 8.50755 55.9016 8.51736C55.9071 8.52576 55.8998 8.51717 55.8874 8.48093L53.9951 9.1283ZM54.6372 10.0526C54.8564 10.217 55.1096 10.3483 55.3959 10.417L55.8626 8.47223C55.8715 8.47436 55.8745 8.47623 55.8711 8.47455C55.8674 8.47272 55.856 8.46666 55.8372 8.45261L54.6372 10.0526ZM55.3959 10.417C55.6292 10.473 55.8753 10.4926 56.1172 10.4926V8.49261C55.9751 8.49261 55.8959 8.48022 55.8626 8.47223L55.3959 10.417ZM56.1172 10.4926C56.389 10.4926 56.6633 10.4577 56.9367 10.3962L56.4977 8.445C56.3445 8.47948 56.2187 8.49261 56.1172 8.49261V10.4926ZM56.9316 10.3974C57.2265 10.3326 57.5141 10.2335 57.7937 10.1039L56.9528 8.2893C56.7951 8.36239 56.6453 8.41259 56.5028 8.44387L56.9316 10.3974ZM57.7854 10.1077C58.0882 9.97074 58.3707 9.795 58.6137 9.56941L57.2528 8.10382C57.1971 8.15556 57.1063 8.21982 56.9611 8.28551L57.7854 10.1077ZM57.0698 9.34102L57.5418 10.149L59.2687 9.14021L58.7967 8.33221L57.0698 9.34102ZM57.5541 9.11972C57.459 9.27379 57.3023 9.43336 57.0384 9.58363L58.0281 11.3216C58.5322 11.0345 58.9567 10.6554 59.2564 10.1695L57.5541 9.11972ZM57.0424 9.58137C56.7344 9.75486 56.4643 9.85663 56.2297 9.90638L56.6447 11.8628C57.1142 11.7633 57.5747 11.577 58.0241 11.3239L57.0424 9.58137ZM56.2297 9.90638C55.9376 9.96833 55.6715 9.99661 55.4292 9.99661V11.9966C55.827 11.9966 56.2328 11.9502 56.6447 11.8628L56.2297 9.90638ZM59.2799 10.8286H58.2799V11.8286H59.2799V10.8286ZM59.2799 1.78061H60.2799V1.21442L59.7943 0.92312L59.2799 1.78061ZM58.7999 1.49261H57.7999V2.0588L58.2854 2.35011L58.7999 1.49261ZM58.7999 0.748614L58.6459 -0.239472L57.7999 -0.107681V0.748614H58.7999ZM61.3679 0.348613V-0.651387H61.2904L61.2139 -0.639472L61.3679 0.348613ZM61.8879 0.348613H62.8879V-0.651387H61.8879V0.348613ZM61.8879 10.8286V11.8286H62.8879V10.8286H61.8879ZM60.2799 10.8286V1.78061H58.2799V10.8286H60.2799ZM59.7943 0.92312L59.3143 0.63512L58.2854 2.35011L58.7654 2.63811L59.7943 0.92312ZM59.7999 1.49261V0.748614H57.7999V1.49261H59.7999ZM58.9538 1.7367L61.5218 1.3367L61.2139 -0.639472L58.6459 -0.239472L58.9538 1.7367ZM61.3679 1.34861H61.8879V-0.651387H61.3679V1.34861ZM60.8879 0.348613V10.8286H62.8879V0.348613H60.8879ZM61.8879 9.82861H59.2799V11.8286H61.8879V9.82861Z" fill="black" mask="url(#path-1-outside-1_998_221)"/>
</svg>
